<svg width="25" height="25" viewBox="0 0 25 25" fill="none" xmlns="http://www.w3.org/2000/svg">
<path d="M4 21C4.83 21.83 6.17 21.83 7 21L20 8C20.83 7.17 20.83 5.83 20 5C19.17 4.17 17.83 4.17 17 5L4 18C3.17 18.83 3.17 20.17 4 21Z" stroke="#0E0F0C" stroke-width="1.2" stroke-linecap="round" stroke-linejoin="round"/>
<path d="M18.51 9.49001L15.51 6.49001" stroke="#0E0F0C" stroke-width="1.2" stroke-linecap="round" stroke-linejoin="round"/>
<path d="M9 2.94L10.5 2.5L10.06 4L10.5 5.5L9 5.06L7.5 5.5L7.94 4L7.5 2.5L9 2.94Z" stroke="#0E0F0C" stroke-width="1.2" stroke-linecap="round" stroke-linejoin="round"/>
<path d="M5 8.94L6.5 8.5L6.06 10L6.5 11.5L5 11.06L3.5 11.5L3.94 10L3.5 8.5L5 8.94Z" stroke="#0E0F0C" stroke-width="1.2" stroke-linecap="round" stroke-linejoin="round"/>
<path d="M20 13.94L21.5 13.5L21.06 15L21.5 16.5L20 16.06L18.5 16.5L18.94 15L18.5 13.5L20 13.94Z" stroke="#0E0F0C" stroke-width="1.2" stroke-linecap="round" stroke-linejoin="round"/>
</svg>
