<svg width="80" height="80" viewBox="0 0 80 80" fill="none" xmlns="http://www.w3.org/2000/svg">
<path opacity="0.4" d="M76.6667 39.9999C76.6667 60.2504 60.2505 76.6666 40 76.6666C19.7496 76.6666 3.33337 60.2504 3.33337 39.9999C3.33337 19.7495 19.7496 3.33325 40 3.33325C60.2505 3.33325 76.6667 19.7495 76.6667 39.9999Z" fill="#00B559"/>
<path d="M56.1785 31.1786C56.8294 30.5277 56.8294 29.4724 56.1785 28.8216C55.5276 28.1707 54.4723 28.1707 53.8214 28.8216L35 47.6431L26.1785 38.8216C25.5276 38.1707 24.4723 38.1707 23.8214 38.8216C23.1706 39.4724 23.1706 40.5277 23.8214 41.1786L33.8214 51.1786C34.4723 51.8295 35.5276 51.8295 36.1785 51.1786L56.1785 31.1786Z" fill="#00B559"/>
<path fill-rule="evenodd" clip-rule="evenodd" d="M40 1.66675C18.829 1.66675 1.66663 18.8292 1.66663 40.0001C1.66663 61.171 18.829 78.3334 40 78.3334C61.1709 78.3334 78.3333 61.171 78.3333 40.0001C78.3333 18.8292 61.1709 1.66675 40 1.66675ZM4.99996 40.0001C4.99996 20.6701 20.67 5.00008 40 5.00008C59.3299 5.00008 75 20.6701 75 40.0001C75 59.3301 59.3299 75.0001 40 75.0001C20.67 75.0001 4.99996 59.3301 4.99996 40.0001Z" fill="#00B559"/>
</svg>
