<svg width="503" height="1168" viewBox="0 0 503 1168" fill="none" xmlns="http://www.w3.org/2000/svg">
<mask id="mask0_738_7708" style="mask-type:alpha" maskUnits="userSpaceOnUse" x="0" y="0" width="1653" height="1168">
<g opacity="0.12">
<rect x="0.434508" y="0.434508" width="82.5566" height="82.5566" stroke="white" stroke-width="0.869016"/>
<rect x="82.9911" y="0.434508" width="82.5566" height="82.5566" stroke="white" stroke-width="0.869016"/>
<rect x="165.548" y="0.434508" width="82.5566" height="82.5566" stroke="white" stroke-width="0.869016"/>
<rect x="248.104" y="0.434508" width="82.5566" height="82.5566" stroke="white" stroke-width="0.869016"/>
<rect x="330.661" y="0.434508" width="82.5566" height="82.5566" stroke="white" stroke-width="0.869016"/>
<rect x="413.217" y="0.434508" width="82.5566" height="82.5566" stroke="white" stroke-width="0.869016"/>
<rect x="495.774" y="0.434508" width="82.5566" height="82.5566" stroke="white" stroke-width="0.869016"/>
<rect x="0.434508" y="83.8601" width="82.5566" height="82.5566" stroke="white" stroke-width="0.869016"/>
<rect x="82.9911" y="83.8601" width="82.5566" height="82.5566" stroke="white" stroke-width="0.869016"/>
<rect x="165.548" y="83.8601" width="82.5566" height="82.5566" stroke="white" stroke-width="0.869016"/>
<rect x="248.104" y="83.8601" width="82.5566" height="82.5566" stroke="white" stroke-width="0.869016"/>
<rect x="330.661" y="83.8601" width="82.5566" height="82.5566" stroke="white" stroke-width="0.869016"/>
<rect x="413.217" y="83.8601" width="82.5566" height="82.5566" stroke="white" stroke-width="0.869016"/>
<rect x="495.774" y="83.8601" width="82.5566" height="82.5566" stroke="white" stroke-width="0.869016"/>
<rect x="0.434508" y="167.286" width="82.5566" height="82.5566" stroke="white" stroke-width="0.869016"/>
<rect x="82.9911" y="167.286" width="82.5566" height="82.5566" stroke="white" stroke-width="0.869016"/>
<rect x="165.548" y="167.286" width="82.5566" height="82.5566" stroke="white" stroke-width="0.869016"/>
<rect x="248.104" y="167.286" width="82.5566" height="82.5566" stroke="white" stroke-width="0.869016"/>
<rect x="330.661" y="167.286" width="82.5566" height="82.5566" stroke="white" stroke-width="0.869016"/>
<rect x="413.217" y="167.286" width="82.5566" height="82.5566" stroke="white" stroke-width="0.869016"/>
<rect x="495.774" y="167.286" width="82.5566" height="82.5566" stroke="white" stroke-width="0.869016"/>
<rect x="0.434508" y="250.711" width="82.5566" height="82.5566" stroke="white" stroke-width="0.869016"/>
<rect x="82.9911" y="250.711" width="82.5566" height="82.5566" stroke="white" stroke-width="0.869016"/>
<rect x="165.548" y="250.711" width="82.5566" height="82.5566" stroke="white" stroke-width="0.869016"/>
<rect x="248.104" y="250.711" width="82.5566" height="82.5566" stroke="white" stroke-width="0.869016"/>
<rect x="330.661" y="250.711" width="82.5566" height="82.5566" stroke="white" stroke-width="0.869016"/>
<rect x="413.217" y="250.711" width="82.5566" height="82.5566" stroke="white" stroke-width="0.869016"/>
<rect x="495.774" y="250.711" width="82.5566" height="82.5566" stroke="white" stroke-width="0.869016"/>
<rect x="0.434508" y="334.137" width="82.5566" height="82.5566" stroke="white" stroke-width="0.869016"/>
<rect x="82.9911" y="334.137" width="82.5566" height="82.5566" stroke="white" stroke-width="0.869016"/>
<rect x="165.548" y="334.137" width="82.5566" height="82.5566" stroke="white" stroke-width="0.869016"/>
<rect x="248.104" y="334.137" width="82.5566" height="82.5566" stroke="white" stroke-width="0.869016"/>
<rect x="330.661" y="334.137" width="82.5566" height="82.5566" stroke="white" stroke-width="0.869016"/>
<rect x="412.783" y="333.702" width="83.4256" height="83.4256" fill="white" fill-opacity="0.13"/>
<rect x="495.774" y="334.137" width="82.5566" height="82.5566" stroke="white" stroke-width="0.869016"/>
<rect x="0.434508" y="417.562" width="82.5566" height="82.5566" stroke="white" stroke-width="0.869016"/>
<rect x="82.9911" y="417.562" width="82.5566" height="82.5566" stroke="white" stroke-width="0.869016"/>
<rect x="165.548" y="417.562" width="82.5566" height="82.5566" stroke="white" stroke-width="0.869016"/>
<rect x="248.104" y="417.562" width="82.5566" height="82.5566" stroke="white" stroke-width="0.869016"/>
<rect x="330.226" y="417.128" width="83.4256" height="83.4256" fill="white" fill-opacity="0.13"/>
<rect x="413.217" y="417.562" width="82.5566" height="82.5566" stroke="white" stroke-width="0.869016"/>
<rect x="495.339" y="417.128" width="83.4256" height="83.4256" fill="white" fill-opacity="0.13"/>
<rect x="0.434508" y="500.988" width="82.5566" height="82.5566" stroke="white" stroke-width="0.869016"/>
<rect x="82.9911" y="500.988" width="82.5566" height="82.5566" stroke="white" stroke-width="0.869016"/>
<rect x="165.548" y="500.988" width="82.5566" height="82.5566" stroke="white" stroke-width="0.869016"/>
<rect x="247.67" y="500.553" width="83.4256" height="83.4256" fill="white" fill-opacity="0.13"/>
<rect x="330.661" y="500.988" width="82.5566" height="82.5566" stroke="white" stroke-width="0.869016"/>
<rect x="412.783" y="500.553" width="83.4256" height="83.4256" fill="white" fill-opacity="0.13"/>
<rect x="495.774" y="500.988" width="82.5566" height="82.5566" stroke="white" stroke-width="0.869016"/>
<rect x="0.434508" y="584.414" width="82.5566" height="82.5566" stroke="white" stroke-width="0.869016"/>
<rect x="82.9911" y="584.414" width="82.5566" height="82.5566" stroke="white" stroke-width="0.869016"/>
<rect x="165.548" y="584.414" width="82.5566" height="82.5566" stroke="white" stroke-width="0.869016"/>
<rect x="248.104" y="584.414" width="82.5566" height="82.5566" stroke="white" stroke-width="0.869016"/>
<rect x="330.661" y="584.414" width="82.5566" height="82.5566" stroke="white" stroke-width="0.869016"/>
<rect x="413.217" y="584.414" width="82.5566" height="82.5566" stroke="white" stroke-width="0.869016"/>
<rect x="495.774" y="584.414" width="82.5566" height="82.5566" stroke="white" stroke-width="0.869016"/>
<rect x="0.434508" y="667.839" width="82.5566" height="82.5566" stroke="white" stroke-width="0.869016"/>
<rect x="82.9911" y="667.839" width="82.5566" height="82.5566" stroke="white" stroke-width="0.869016"/>
<rect x="165.548" y="667.839" width="82.5566" height="82.5566" stroke="white" stroke-width="0.869016"/>
<rect x="248.104" y="667.839" width="82.5566" height="82.5566" stroke="white" stroke-width="0.869016"/>
<rect x="330.661" y="667.839" width="82.5566" height="82.5566" stroke="white" stroke-width="0.869016"/>
<rect x="413.217" y="667.839" width="82.5566" height="82.5566" stroke="white" stroke-width="0.869016"/>
<rect x="495.774" y="667.839" width="82.5566" height="82.5566" stroke="white" stroke-width="0.869016"/>
<rect x="0.434508" y="751.265" width="82.5566" height="82.5566" stroke="white" stroke-width="0.869016"/>
<rect x="82.9911" y="751.265" width="82.5566" height="82.5566" stroke="white" stroke-width="0.869016"/>
<rect x="165.548" y="751.265" width="82.5566" height="82.5566" stroke="white" stroke-width="0.869016"/>
<rect x="248.104" y="751.265" width="82.5566" height="82.5566" stroke="white" stroke-width="0.869016"/>
<rect x="330.661" y="751.265" width="82.5566" height="82.5566" stroke="white" stroke-width="0.869016"/>
<rect x="413.217" y="751.265" width="82.5566" height="82.5566" stroke="white" stroke-width="0.869016"/>
<rect x="495.774" y="751.265" width="82.5566" height="82.5566" stroke="white" stroke-width="0.869016"/>
<rect x="0.434508" y="834.69" width="82.5566" height="82.5566" stroke="white" stroke-width="0.869016"/>
<rect x="82.9911" y="834.69" width="82.5566" height="82.5566" stroke="white" stroke-width="0.869016"/>
<rect x="165.548" y="834.69" width="82.5566" height="82.5566" stroke="white" stroke-width="0.869016"/>
<rect x="248.104" y="834.69" width="82.5566" height="82.5566" stroke="white" stroke-width="0.869016"/>
<rect x="330.661" y="834.69" width="82.5566" height="82.5566" stroke="white" stroke-width="0.869016"/>
<rect x="413.217" y="834.69" width="82.5566" height="82.5566" stroke="white" stroke-width="0.869016"/>
<rect x="495.774" y="834.69" width="82.5566" height="82.5566" stroke="white" stroke-width="0.869016"/>
<rect x="0.434508" y="918.116" width="82.5566" height="82.5566" stroke="white" stroke-width="0.869016"/>
<rect x="82.9911" y="918.116" width="82.5566" height="82.5566" stroke="white" stroke-width="0.869016"/>
<rect x="165.548" y="918.116" width="82.5566" height="82.5566" stroke="white" stroke-width="0.869016"/>
<rect x="248.104" y="918.116" width="82.5566" height="82.5566" stroke="white" stroke-width="0.869016"/>
<rect x="330.661" y="918.116" width="82.5566" height="82.5566" stroke="white" stroke-width="0.869016"/>
<rect x="413.217" y="918.116" width="82.5566" height="82.5566" stroke="white" stroke-width="0.869016"/>
<rect x="495.774" y="918.116" width="82.5566" height="82.5566" stroke="white" stroke-width="0.869016"/>
<rect x="0.434508" y="1001.54" width="82.5566" height="82.5566" stroke="white" stroke-width="0.869016"/>
<rect x="82.9911" y="1001.54" width="82.5566" height="82.5566" stroke="white" stroke-width="0.869016"/>
<rect x="165.548" y="1001.54" width="82.5566" height="82.5566" stroke="white" stroke-width="0.869016"/>
<rect x="248.104" y="1001.54" width="82.5566" height="82.5566" stroke="white" stroke-width="0.869016"/>
<rect x="330.661" y="1001.54" width="82.5566" height="82.5566" stroke="white" stroke-width="0.869016"/>
<rect x="413.217" y="1001.54" width="82.5566" height="82.5566" stroke="white" stroke-width="0.869016"/>
<rect x="495.774" y="1001.54" width="82.5566" height="82.5566" stroke="white" stroke-width="0.869016"/>
<rect x="0.434508" y="1084.97" width="82.5566" height="82.5566" stroke="white" stroke-width="0.869016"/>
<rect x="82.9911" y="1084.97" width="82.5566" height="82.5566" stroke="white" stroke-width="0.869016"/>
<rect x="165.548" y="1084.97" width="82.5566" height="82.5566" stroke="white" stroke-width="0.869016"/>
<rect x="248.104" y="1084.97" width="82.5566" height="82.5566" stroke="white" stroke-width="0.869016"/>
<rect x="330.661" y="1084.97" width="82.5566" height="82.5566" stroke="white" stroke-width="0.869016"/>
<rect x="413.217" y="1084.97" width="82.5566" height="82.5566" stroke="white" stroke-width="0.869016"/>
<rect x="495.774" y="1084.97" width="82.5566" height="82.5566" stroke="white" stroke-width="0.869016"/>
</g>
</mask>
<g mask="url(#mask0_738_7708)">
<g filter="url(#filter0_f_738_7708)">
<ellipse cx="410.098" cy="14.9118" rx="189.869" ry="181.671" transform="rotate(34.13 410.098 14.9118)" fill="#20BF0E"/>
</g>
</g>
<defs>
<filter id="filter0_f_738_7708" x="180.564" y="-211.58" width="459.069" height="452.983" filterUnits="userSpaceOnUse" color-interpolation-filters="sRGB">
<feFlood flood-opacity="0" result="BackgroundImageFix"/>
<feBlend mode="normal" in="SourceGraphic" in2="BackgroundImageFix" result="shape"/>
<feGaussianBlur stdDeviation="21.0926" result="effect1_foregroundBlur_738_7708"/>
</filter>
</defs>
</svg>
