<svg width="20" height="21" viewBox="0 0 20 21" fill="none" xmlns="http://www.w3.org/2000/svg">
<path d="M2.9167 17.1834C3.60837 17.875 4.72503 17.875 5.4167 17.1834L16.25 6.35005C16.9417 5.65838 16.9417 4.54172 16.25 3.85005C15.5584 3.15838 14.4417 3.15838 13.75 3.85005L2.9167 14.6834C2.22503 15.375 2.22503 16.4917 2.9167 17.1834Z" stroke="#20BF0E" stroke-width="1.2" stroke-linecap="round" stroke-linejoin="round"/>
<path d="M15.0083 7.5918L12.5083 5.0918" stroke="#20BF0E" stroke-width="1.2" stroke-linecap="round" stroke-linejoin="round"/>
<path d="M7.08325 2.13351L8.33325 1.76685L7.96659 3.01685L8.33325 4.26685L7.08325 3.90018L5.83325 4.26685L6.19992 3.01685L5.83325 1.76685L7.08325 2.13351Z" stroke="#20BF0E" stroke-width="1.2" stroke-linecap="round" stroke-linejoin="round"/>
<path d="M3.75 7.13351L5 6.76685L4.63333 8.01685L5 9.26685L3.75 8.90018L2.5 9.26685L2.86667 8.01685L2.5 6.76685L3.75 7.13351Z" stroke="#20BF0E" stroke-width="1.2" stroke-linecap="round" stroke-linejoin="round"/>
<path d="M16.25 11.3L17.5 10.9333L17.1333 12.1833L17.5 13.4333L16.25 13.0667L15 13.4333L15.3667 12.1833L15 10.9333L16.25 11.3Z" stroke="#20BF0E" stroke-width="1.2" stroke-linecap="round" stroke-linejoin="round"/>
</svg>
