<svg width="20" height="21" viewBox="0 0 20 21" fill="none" xmlns="http://www.w3.org/2000/svg">
<path d="M15.4359 10.5328L11.4063 9.0437L9.92188 5.01089C9.83397 4.77208 9.67494 4.56599 9.46622 4.42041C9.25751 4.27483 9.00916 4.19678 8.75469 4.19678C8.50022 4.19678 8.25187 4.27483 8.04316 4.42041C7.83444 4.56599 7.67541 4.77208 7.5875 5.01089L6.09375 9.0437L2.06094 10.5281C1.82213 10.616 1.61604 10.775 1.47046 10.9837C1.32488 11.1924 1.24683 11.4408 1.24683 11.6953C1.24683 11.9497 1.32488 12.1981 1.47046 12.4068C1.61604 12.6155 1.82213 12.7745 2.06094 12.8625L6.09375 14.3562L7.57813 18.389C7.66603 18.6278 7.82507 18.8339 8.03378 18.9795C8.2425 19.1251 8.49085 19.2031 8.74532 19.2031C8.99979 19.2031 9.24813 19.1251 9.45685 18.9795C9.66556 18.8339 9.8246 18.6278 9.9125 18.389L11.4063 14.3562L15.4391 12.8718C15.6779 12.7839 15.884 12.6249 16.0295 12.4162C16.1751 12.2075 16.2532 11.9591 16.2532 11.7046C16.2532 11.4502 16.1751 11.2018 16.0295 10.9931C15.884 10.7844 15.6779 10.6254 15.4391 10.5375L15.4359 10.5328ZM10.7031 13.2796C10.6183 13.3109 10.5412 13.3602 10.4773 13.4241C10.4134 13.4881 10.3641 13.5651 10.3328 13.65L8.75 17.9382L7.17031 13.6531C7.1391 13.5673 7.08949 13.4895 7.02498 13.425C6.96046 13.3605 6.88261 13.3109 6.79688 13.2796L2.51172 11.7L6.79688 10.1203C6.88261 10.089 6.96046 10.0394 7.02498 9.97493C7.08949 9.91041 7.1391 9.83256 7.17031 9.74683L8.75 5.46167L10.3297 9.74683C10.361 9.83166 10.4103 9.90871 10.4742 9.97264C10.5381 10.0366 10.6152 10.0859 10.7 10.1171L14.9883 11.7L10.7031 13.2796ZM11.25 3.57495C11.25 3.40919 11.3158 3.25022 11.4331 3.13301C11.5503 3.0158 11.7092 2.94995 11.875 2.94995H13.125V1.69995C13.125 1.53419 13.1908 1.37522 13.3081 1.25801C13.4253 1.1408 13.5842 1.07495 13.75 1.07495C13.9158 1.07495 14.0747 1.1408 14.1919 1.25801C14.3092 1.37522 14.375 1.53419 14.375 1.69995V2.94995H15.625C15.7908 2.94995 15.9497 3.0158 16.0669 3.13301C16.1842 3.25022 16.25 3.40919 16.25 3.57495C16.25 3.74071 16.1842 3.89968 16.0669 4.01689C15.9497 4.1341 15.7908 4.19995 15.625 4.19995H14.375V5.44995C14.375 5.61571 14.3092 5.77468 14.1919 5.89189C14.0747 6.0091 13.9158 6.07495 13.75 6.07495C13.5842 6.07495 13.4253 6.0091 13.3081 5.89189C13.1908 5.77468 13.125 5.61571 13.125 5.44995V4.19995H11.875C11.7092 4.19995 11.5503 4.1341 11.4331 4.01689C11.3158 3.89968 11.25 3.74071 11.25 3.57495ZM19.375 7.32495C19.375 7.49071 19.3092 7.64968 19.1919 7.76689C19.0747 7.8841 18.9158 7.94995 18.75 7.94995H18.125V8.57495C18.125 8.74071 18.0592 8.89968 17.9419 9.01689C17.8247 9.1341 17.6658 9.19995 17.5 9.19995C17.3342 9.19995 17.1753 9.1341 17.0581 9.01689C16.9408 8.89968 16.875 8.74071 16.875 8.57495V7.94995H16.25C16.0842 7.94995 15.9253 7.8841 15.8081 7.76689C15.6908 7.64968 15.625 7.49071 15.625 7.32495C15.625 7.15919 15.6908 7.00022 15.8081 6.88301C15.9253 6.7658 16.0842 6.69995 16.25 6.69995H16.875V6.07495C16.875 5.90919 16.9408 5.75022 17.0581 5.63301C17.1753 5.5158 17.3342 5.44995 17.5 5.44995C17.6658 5.44995 17.8247 5.5158 17.9419 5.63301C18.0592 5.75022 18.125 5.90919 18.125 6.07495V6.69995H18.75C18.9158 6.69995 19.0747 6.7658 19.1919 6.88301C19.3092 7.00022 19.375 7.15919 19.375 7.32495Z" fill="white"/>
</svg>
