<svg width="120" height="120" viewBox="0 0 120 120" fill="none" xmlns="http://www.w3.org/2000/svg">
<path opacity="0.4" d="M70 20C70 31.0457 78.9543 40 90 40C90.9194 40 91.8242 39.938 92.7107 39.8179L93.6054 49.6594C94.5206 59.7267 97.9372 69.4057 103.545 77.8168L103.711 78.0662C104.551 79.3272 105 80.8087 105 82.3241C105 86.5634 101.563 90 97.3241 90H22.6759C18.4366 90 15 86.5634 15 82.3241C15 80.8087 15.4486 79.3271 16.2892 78.0662L16.4555 77.8168C22.0628 69.4057 25.4794 59.7267 26.3946 49.6594L27.2839 39.8768C28.8222 22.956 43.0094 10 60 10C64.0784 10 67.9952 10.7465 71.6143 12.1151C70.5754 14.5345 70 17.2001 70 20Z" fill="#00B559"/>
<path d="M90.2167 39.9989L90.2263 40.1031L91.1157 49.8857C92.0686 60.3679 95.6259 70.4458 101.464 79.2035L101.631 79.453C102.198 80.3032 102.5 81.3022 102.5 82.3241C102.5 85.1827 100.183 87.5 97.3241 87.5H22.6759C19.8173 87.5 17.5 85.1827 17.5 82.3241C17.5 81.3022 17.8025 80.3032 18.3693 79.453L18.5356 79.2035C24.3741 70.4458 27.9314 60.3679 28.8843 49.8857L29.7737 40.1031C31.1949 24.47 44.3024 12.5 60 12.5C63.7844 12.5 67.4183 13.1957 70.7741 14.4707C71.2413 12.8434 71.9095 11.3011 72.7501 9.87243C68.7856 8.33836 64.4835 7.5 60 7.5C41.7164 7.5 26.4495 21.4419 24.7942 39.6505L23.9049 49.433C23.0274 59.0855 19.7516 68.3656 14.3753 76.43L14.209 76.6795C13.0947 78.3511 12.5 80.3151 12.5 82.3241C12.5 87.9441 17.0559 92.5 22.6759 92.5H97.3241C102.944 92.5 107.5 87.9441 107.5 82.3241C107.5 80.3151 106.905 78.3511 105.791 76.6795L105.625 76.43C100.248 68.3656 96.9726 59.0855 96.0951 49.433L95.2058 39.6505C95.1959 39.5415 95.1855 39.4327 95.1746 39.3241C93.5908 39.7472 91.9296 39.9807 90.2167 39.9989Z" fill="#00B559"/>
<path d="M45.7551 100.336C46.9503 99.645 48.4796 100.053 49.171 101.249C51.336 104.991 55.3766 107.5 60.0002 107.5C64.6238 107.5 68.6644 104.991 70.8295 101.249C71.5208 100.053 73.0501 99.645 74.2453 100.336C75.4404 101.028 75.8489 102.557 75.1575 103.752C72.1354 108.976 66.4808 112.5 60.0002 112.5C53.5196 112.5 47.865 108.976 44.8429 103.752C44.1516 102.557 44.56 101.028 45.7551 100.336Z" fill="#00B559"/>
<path fill-rule="evenodd" clip-rule="evenodd" d="M90 7.5C83.0964 7.5 77.5 13.0964 77.5 20C77.5 26.9036 83.0964 32.5 90 32.5C96.9036 32.5 102.5 26.9036 102.5 20C102.5 13.0964 96.9036 7.5 90 7.5ZM82.5 20C82.5 15.8579 85.8579 12.5 90 12.5C94.1421 12.5 97.5 15.8579 97.5 20C97.5 24.1421 94.1421 27.5 90 27.5C85.8579 27.5 82.5 24.1421 82.5 20Z" fill="#00B559"/>
</svg>
