<svg width="120" height="120" viewBox="0 0 120 120" fill="none" xmlns="http://www.w3.org/2000/svg">
<path opacity="0.4" d="M110 42.5H5V71C5 79.4008 5 83.6012 6.6349 86.8099C8.073 89.6323 10.3677 91.927 13.1901 93.3651C16.3988 95 20.5992 95 29 95H58.2201C57.7596 93.9294 57.5 92.6919 57.5 91.245C57.5 84.7331 62.771 82.4688 67.93 80.555C70.315 79.675 72.18 77.815 73.05 75.44C74.9668 70.2795 77.2288 65 83.745 65C85.475 65 87.06 65.52 88.485 66.315C89.405 64.525 90.89 63.05 92.85 62.33C93.083 62.2438 93.3632 62.1636 93.6629 62.0778C94.7134 61.777 96.0049 61.4073 96.355 60.47C97.8606 56.4164 99.954 52.5248 104.96 52.51H104.995C107.13 52.51 108.74 53.2138 110 54.3358V42.5Z" fill="#00B559"/>
<path fill-rule="evenodd" clip-rule="evenodd" d="M28.889 12.5C24.7826 12.5 21.5477 12.5 18.9445 12.7127C16.2886 12.9297 14.0707 13.3804 12.0552 14.4074C8.76233 16.0852 6.08517 18.7623 4.40739 22.0552C3.38043 24.0707 2.92966 26.2886 2.71267 28.9445C2.49997 31.5477 2.49998 34.7826 2.5 38.8889V71.111C2.49998 75.2174 2.49997 78.4523 2.71267 81.0555C2.92966 83.7114 3.38043 85.9293 4.40739 87.9448C6.08517 91.2377 8.76233 93.9148 12.0552 95.5926C14.0707 96.6196 16.2886 97.0703 18.9444 97.2873C21.5477 97.5 24.7826 97.5 28.8889 97.5H59.8929C58.6638 96.2166 57.8105 94.6071 57.5694 92.5H29C24.7583 92.5 21.7275 92.4981 19.3516 92.3039C17.0049 92.1122 15.5183 91.7455 14.3251 91.1376C11.9731 89.9392 10.0608 88.0269 8.86242 85.6749C8.25447 84.4817 7.88779 82.9951 7.69606 80.6484C7.50195 78.2725 7.5 75.2416 7.5 71V45H107.5V52.8868C109.875 53.6624 111.385 55.5544 112.5 57.7994V38.8889C112.5 34.7826 112.5 31.5477 112.287 28.9445C112.07 26.2886 111.62 24.0707 110.593 22.0552C108.915 18.7623 106.238 16.0852 102.945 14.4074C100.929 13.3804 98.7114 12.9297 96.0555 12.7127C93.4523 12.5 90.2174 12.5 86.111 12.5H28.889ZM7.5 40H107.5V39C107.5 34.7584 107.498 31.7275 107.304 29.3516C107.112 27.0049 106.746 25.5183 106.138 24.3251C104.939 21.9731 103.027 20.0608 100.675 18.8624C99.4817 18.2545 97.9951 17.8878 95.6484 17.6961C93.2725 17.5019 90.2417 17.5 86 17.5H29C24.7584 17.5 21.7275 17.5019 19.3516 17.6961C17.0049 17.8878 15.5183 18.2545 14.3251 18.8624C11.9731 20.0608 10.0608 21.9731 8.86242 24.3251C8.25447 25.5183 7.88779 27.0049 7.69606 29.3516C7.50195 31.7275 7.5 34.7584 7.5 39V40Z" fill="#00B559"/>
<path d="M25 70C23.6193 70 22.5 71.1193 22.5 72.5C22.5 73.8807 23.6193 75 25 75H47.5C48.8807 75 50 73.8807 50 72.5C50 71.1193 48.8807 70 47.5 70H25Z" fill="#00B559"/>
<path fill-rule="evenodd" clip-rule="evenodd" d="M79.2394 73.1405C80.7888 68.9532 86.7112 68.9532 88.2607 73.1405L89.7527 77.1727C91.137 80.9136 94.0864 83.863 97.8273 85.2473L101.86 86.7394C106.047 88.2888 106.047 94.2112 101.86 95.7607L97.8273 97.2527C94.0864 98.637 91.137 101.586 89.7527 105.327L88.2607 109.36C86.7112 113.547 80.7888 113.547 79.2394 109.36L77.7473 105.327C76.363 101.586 73.4136 98.637 69.6727 97.2527L65.6405 95.7607C61.4532 94.2112 61.4532 88.2888 65.6405 86.7394L69.6727 85.2473C73.4136 83.863 76.363 80.9136 77.7473 77.1727L79.2394 73.1405ZM83.75 75.3583L82.4366 78.9079C80.5459 84.0174 76.5174 88.0459 71.4079 89.9366L67.8583 91.25L71.4079 92.5635C76.5174 94.4541 80.5459 98.4827 82.4366 103.592L83.75 107.142L85.0635 103.592C86.9541 98.4827 90.9827 94.4541 96.0921 92.5634L99.6417 91.25L96.0921 89.9366C90.9827 88.0459 86.9541 84.0174 85.0634 78.9079L83.75 75.3583Z" fill="#00B559"/>
<path d="M105.634 60.4416C105.416 59.8528 104.584 59.8528 104.366 60.4416L103.394 63.0664C102.481 65.5348 100.535 67.481 98.0664 68.3944L95.4416 69.3657C94.8528 69.5836 94.8528 70.4164 95.4416 70.6343L98.0664 71.6056C100.535 72.519 102.481 74.4652 103.394 76.9336L104.366 79.5584C104.584 80.1472 105.416 80.1472 105.634 79.5584L106.606 76.9336C107.519 74.4652 109.465 72.519 111.934 71.6056L114.558 70.6343C115.147 70.4164 115.147 69.5836 114.558 69.3657L111.934 68.3944C109.465 67.481 107.519 65.5348 106.606 63.0664L105.634 60.4416Z" fill="#00B559"/>
</svg>
