<svg width="17" height="17" viewBox="0 0 17 17" fill="none" xmlns="http://www.w3.org/2000/svg">
<path d="M14.5 4.48665C12.28 4.26665 10.0467 4.15332 7.82 4.15332C6.5 4.15332 5.18 4.21999 3.86 4.35332L2.5 4.48665" stroke="white" stroke-width="1.5" stroke-linecap="round" stroke-linejoin="round"/>
<path d="M6.16669 3.8135L6.31335 2.94016C6.42002 2.30683 6.50002 1.8335 7.62669 1.8335H9.37335C10.5 1.8335 10.5867 2.3335 10.6867 2.94683L10.8334 3.8135" stroke="white" stroke-width="1.5" stroke-linecap="round" stroke-linejoin="round"/>
<path d="M13.0667 6.59326L12.6334 13.3066C12.56 14.3533 12.5 15.1666 10.64 15.1666H6.36002C4.50002 15.1666 4.44002 14.3533 4.36668 13.3066L3.93335 6.59326" stroke="white" stroke-width="1.5" stroke-linecap="round" stroke-linejoin="round"/>
<path d="M7.38666 11.5H9.60666" stroke="white" stroke-width="1.5" stroke-linecap="round" stroke-linejoin="round"/>
<path d="M6.83331 8.8335H10.1666" stroke="white" stroke-width="1.5" stroke-linecap="round" stroke-linejoin="round"/>
</svg>
