<svg width="1420" height="900" viewBox="0 0 1420 900" fill="none" xmlns="http://www.w3.org/2000/svg">
<mask id="mask0_701_66569" style="mask-type:alpha" maskUnits="userSpaceOnUse" x="-773" y="-382" width="2193" height="1551">
<g opacity="0.12">
<rect x="-5.27696" y="-49.1854" width="109.592" height="109.592" stroke="white" stroke-width="1.1536"/>
<rect x="104.316" y="-49.1854" width="109.592" height="109.592" stroke="white" stroke-width="1.1536"/>
<rect x="213.908" y="-49.1854" width="109.592" height="109.592" stroke="white" stroke-width="1.1536"/>
<rect x="323.5" y="-49.1854" width="109.592" height="109.592" stroke="white" stroke-width="1.1536"/>
<rect x="433.092" y="-49.1854" width="109.592" height="109.592" stroke="white" stroke-width="1.1536"/>
<rect x="542.685" y="-49.1854" width="109.592" height="109.592" stroke="white" stroke-width="1.1536"/>
<rect x="652.277" y="-49.1854" width="109.592" height="109.592" stroke="white" stroke-width="1.1536"/>
<rect x="761.869" y="-49.1854" width="109.592" height="109.592" stroke="white" stroke-width="1.1536"/>
<rect x="871.462" y="-49.1854" width="109.592" height="109.592" stroke="white" stroke-width="1.1536"/>
<rect x="981.054" y="-49.1854" width="109.592" height="109.592" stroke="white" stroke-width="1.1536"/>
<rect x="1090.65" y="-49.1854" width="109.592" height="109.592" stroke="white" stroke-width="1.1536"/>
<rect x="1200.24" y="-49.1854" width="109.592" height="109.592" stroke="white" stroke-width="1.1536"/>
<rect x="1309.83" y="-49.1854" width="109.592" height="109.592" stroke="white" stroke-width="1.1536"/>
<rect x="-5.27696" y="61.5604" width="109.592" height="109.592" stroke="white" stroke-width="1.1536"/>
<rect x="104.316" y="61.5604" width="109.592" height="109.592" stroke="white" stroke-width="1.1536"/>
<rect x="213.908" y="61.5604" width="109.592" height="109.592" stroke="white" stroke-width="1.1536"/>
<rect x="323.5" y="61.5604" width="109.592" height="109.592" stroke="white" stroke-width="1.1536"/>
<rect x="433.092" y="61.5604" width="109.592" height="109.592" stroke="white" stroke-width="1.1536"/>
<rect x="542.108" y="60.9836" width="110.746" height="110.746" fill="white" fill-opacity="0.13"/>
<rect x="652.277" y="61.5604" width="109.592" height="109.592" stroke="white" stroke-width="1.1536"/>
<rect x="761.292" y="60.9836" width="110.746" height="110.746" fill="white" fill-opacity="0.13"/>
<rect x="871.462" y="61.5604" width="109.592" height="109.592" stroke="white" stroke-width="1.1536"/>
<rect x="981.054" y="61.5604" width="109.592" height="109.592" stroke="white" stroke-width="1.1536"/>
<rect x="1090.65" y="61.5604" width="109.592" height="109.592" stroke="white" stroke-width="1.1536"/>
<rect x="1200.24" y="61.5604" width="109.592" height="109.592" stroke="white" stroke-width="1.1536"/>
<rect x="1309.83" y="61.5604" width="109.592" height="109.592" stroke="white" stroke-width="1.1536"/>
<rect x="-5.27696" y="172.306" width="109.592" height="109.592" stroke="white" stroke-width="1.1536"/>
<rect x="104.316" y="172.306" width="109.592" height="109.592" stroke="white" stroke-width="1.1536"/>
<rect x="213.908" y="172.306" width="109.592" height="109.592" stroke="white" stroke-width="1.1536"/>
<rect x="323.5" y="172.306" width="109.592" height="109.592" stroke="white" stroke-width="1.1536"/>
<rect x="432.516" y="171.729" width="110.746" height="110.746" fill="white" fill-opacity="0.13"/>
<rect x="542.685" y="172.306" width="109.592" height="109.592" stroke="white" stroke-width="1.1536"/>
<rect x="651.7" y="171.729" width="110.746" height="110.746" fill="white" fill-opacity="0.13"/>
<rect x="761.869" y="172.306" width="109.592" height="109.592" stroke="white" stroke-width="1.1536"/>
<rect x="871.462" y="172.306" width="109.592" height="109.592" stroke="white" stroke-width="1.1536"/>
<rect x="981.054" y="172.306" width="109.592" height="109.592" stroke="white" stroke-width="1.1536"/>
<rect x="1090.65" y="172.306" width="109.592" height="109.592" stroke="white" stroke-width="1.1536"/>
<rect x="1200.24" y="172.306" width="109.592" height="109.592" stroke="white" stroke-width="1.1536"/>
<rect x="1309.83" y="172.306" width="109.592" height="109.592" stroke="white" stroke-width="1.1536"/>
<rect x="-5.27696" y="283.052" width="109.592" height="109.592" stroke="white" stroke-width="1.1536"/>
<rect x="104.316" y="283.052" width="109.592" height="109.592" stroke="white" stroke-width="1.1536"/>
<rect x="213.908" y="283.052" width="109.592" height="109.592" stroke="white" stroke-width="1.1536"/>
<rect x="323.5" y="283.052" width="109.592" height="109.592" stroke="white" stroke-width="1.1536"/>
<rect x="433.092" y="283.052" width="109.592" height="109.592" stroke="white" stroke-width="1.1536"/>
<rect x="542.108" y="282.476" width="110.746" height="110.746" fill="white" fill-opacity="0.13"/>
<rect x="652.277" y="283.052" width="109.592" height="109.592" stroke="white" stroke-width="1.1536"/>
<rect x="761.869" y="283.052" width="109.592" height="109.592" stroke="white" stroke-width="1.1536"/>
<rect x="871.462" y="283.052" width="109.592" height="109.592" stroke="white" stroke-width="1.1536"/>
<rect x="981.054" y="283.052" width="109.592" height="109.592" stroke="white" stroke-width="1.1536"/>
<rect x="1090.65" y="283.052" width="109.592" height="109.592" stroke="white" stroke-width="1.1536"/>
<rect x="1200.24" y="283.052" width="109.592" height="109.592" stroke="white" stroke-width="1.1536"/>
<rect x="1309.83" y="283.052" width="109.592" height="109.592" stroke="white" stroke-width="1.1536"/>
<rect x="-5.27696" y="393.798" width="109.592" height="109.592" stroke="white" stroke-width="1.1536"/>
<rect x="104.316" y="393.798" width="109.592" height="109.592" stroke="white" stroke-width="1.1536"/>
<rect x="213.908" y="393.798" width="109.592" height="109.592" stroke="white" stroke-width="1.1536"/>
<rect x="323.5" y="393.798" width="109.592" height="109.592" stroke="white" stroke-width="1.1536"/>
<rect x="433.092" y="393.798" width="109.592" height="109.592" stroke="white" stroke-width="1.1536"/>
<rect x="542.685" y="393.798" width="109.592" height="109.592" stroke="white" stroke-width="1.1536"/>
<rect x="652.277" y="393.798" width="109.592" height="109.592" stroke="white" stroke-width="1.1536"/>
<rect x="761.869" y="393.798" width="109.592" height="109.592" stroke="white" stroke-width="1.1536"/>
<rect x="871.462" y="393.798" width="109.592" height="109.592" stroke="white" stroke-width="1.1536"/>
<rect x="981.054" y="393.798" width="109.592" height="109.592" stroke="white" stroke-width="1.1536"/>
<rect x="1090.65" y="393.798" width="109.592" height="109.592" stroke="white" stroke-width="1.1536"/>
<rect x="1200.24" y="393.798" width="109.592" height="109.592" stroke="white" stroke-width="1.1536"/>
<rect x="1309.83" y="393.798" width="109.592" height="109.592" stroke="white" stroke-width="1.1536"/>
<rect x="-5.27696" y="504.544" width="109.592" height="109.592" stroke="white" stroke-width="1.1536"/>
<rect x="104.316" y="504.544" width="109.592" height="109.592" stroke="white" stroke-width="1.1536"/>
<rect x="213.908" y="504.544" width="109.592" height="109.592" stroke="white" stroke-width="1.1536"/>
<rect x="323.5" y="504.544" width="109.592" height="109.592" stroke="white" stroke-width="1.1536"/>
<rect x="432.516" y="503.967" width="110.746" height="110.746" fill="white" fill-opacity="0.13"/>
<rect x="542.685" y="504.544" width="109.592" height="109.592" stroke="white" stroke-width="1.1536"/>
<rect x="652.277" y="504.544" width="109.592" height="109.592" stroke="white" stroke-width="1.1536"/>
<rect x="761.869" y="504.544" width="109.592" height="109.592" stroke="white" stroke-width="1.1536"/>
<rect x="871.462" y="504.544" width="109.592" height="109.592" stroke="white" stroke-width="1.1536"/>
<rect x="981.054" y="504.544" width="109.592" height="109.592" stroke="white" stroke-width="1.1536"/>
<rect x="1090.65" y="504.544" width="109.592" height="109.592" stroke="white" stroke-width="1.1536"/>
<rect x="1200.24" y="504.544" width="109.592" height="109.592" stroke="white" stroke-width="1.1536"/>
<rect x="1309.83" y="504.544" width="109.592" height="109.592" stroke="white" stroke-width="1.1536"/>
<rect x="-5.27696" y="615.29" width="109.592" height="109.592" stroke="white" stroke-width="1.1536"/>
<rect x="104.316" y="615.29" width="109.592" height="109.592" stroke="white" stroke-width="1.1536"/>
<rect x="213.908" y="615.29" width="109.592" height="109.592" stroke="white" stroke-width="1.1536"/>
<rect x="322.923" y="614.713" width="110.746" height="110.746" fill="white" fill-opacity="0.13"/>
<rect x="433.092" y="615.29" width="109.592" height="109.592" stroke="white" stroke-width="1.1536"/>
<rect x="542.108" y="614.713" width="110.746" height="110.746" fill="white" fill-opacity="0.13"/>
<rect x="652.277" y="615.29" width="109.592" height="109.592" stroke="white" stroke-width="1.1536"/>
<rect x="761.292" y="614.713" width="110.746" height="110.746" fill="white" fill-opacity="0.13"/>
<rect x="871.462" y="615.29" width="109.592" height="109.592" stroke="white" stroke-width="1.1536"/>
<rect x="981.054" y="615.29" width="109.592" height="109.592" stroke="white" stroke-width="1.1536"/>
<rect x="1090.65" y="615.29" width="109.592" height="109.592" stroke="white" stroke-width="1.1536"/>
<rect x="1200.24" y="615.29" width="109.592" height="109.592" stroke="white" stroke-width="1.1536"/>
<rect x="1309.83" y="615.29" width="109.592" height="109.592" stroke="white" stroke-width="1.1536"/>
<rect x="-5.27696" y="726.036" width="109.592" height="109.592" stroke="white" stroke-width="1.1536"/>
<rect x="104.316" y="726.036" width="109.592" height="109.592" stroke="white" stroke-width="1.1536"/>
<rect x="213.331" y="725.459" width="110.746" height="110.746" fill="white" fill-opacity="0.13"/>
<rect x="323.5" y="726.036" width="109.592" height="109.592" stroke="white" stroke-width="1.1536"/>
<rect x="432.516" y="725.459" width="110.746" height="110.746" fill="white" fill-opacity="0.13"/>
<rect x="542.685" y="726.036" width="109.592" height="109.592" stroke="white" stroke-width="1.1536"/>
<rect x="651.7" y="725.459" width="110.746" height="110.746" fill="white" fill-opacity="0.13"/>
<rect x="761.869" y="726.036" width="109.592" height="109.592" stroke="white" stroke-width="1.1536"/>
<rect x="871.462" y="726.036" width="109.592" height="109.592" stroke="white" stroke-width="1.1536"/>
<rect x="981.054" y="726.036" width="109.592" height="109.592" stroke="white" stroke-width="1.1536"/>
<rect x="1090.65" y="726.036" width="109.592" height="109.592" stroke="white" stroke-width="1.1536"/>
<rect x="1200.24" y="726.036" width="109.592" height="109.592" stroke="white" stroke-width="1.1536"/>
<rect x="1309.83" y="726.036" width="109.592" height="109.592" stroke="white" stroke-width="1.1536"/>
<rect x="-5.27696" y="836.782" width="109.592" height="109.592" stroke="white" stroke-width="1.1536"/>
<rect x="104.316" y="836.782" width="109.592" height="109.592" stroke="white" stroke-width="1.1536"/>
<rect x="213.908" y="836.782" width="109.592" height="109.592" stroke="white" stroke-width="1.1536"/>
<rect x="322.923" y="836.205" width="110.746" height="110.746" fill="white" fill-opacity="0.13"/>
<rect x="433.092" y="836.782" width="109.592" height="109.592" stroke="white" stroke-width="1.1536"/>
<rect x="542.108" y="836.205" width="110.746" height="110.746" fill="white" fill-opacity="0.13"/>
<rect x="652.277" y="836.782" width="109.592" height="109.592" stroke="white" stroke-width="1.1536"/>
<rect x="761.869" y="836.782" width="109.592" height="109.592" stroke="white" stroke-width="1.1536"/>
<rect x="871.462" y="836.782" width="109.592" height="109.592" stroke="white" stroke-width="1.1536"/>
<rect x="981.054" y="836.782" width="109.592" height="109.592" stroke="white" stroke-width="1.1536"/>
<rect x="1090.65" y="836.782" width="109.592" height="109.592" stroke="white" stroke-width="1.1536"/>
<rect x="1200.24" y="836.782" width="109.592" height="109.592" stroke="white" stroke-width="1.1536"/>
<rect x="1309.83" y="836.782" width="109.592" height="109.592" stroke="white" stroke-width="1.1536"/>
</g>
</mask>
<g mask="url(#mask0_701_66569)">
<g filter="url(#filter0_f_701_66569)">
<ellipse cx="221.392" cy="72.1835" rx="337.221" ry="192.12" transform="rotate(-0.351182 221.392 72.1835)" fill="#20BF0E"/>
</g>
<g filter="url(#filter1_f_701_66569)">
<ellipse cx="-251.309" cy="471.784" rx="264.661" ry="190.017" transform="rotate(34.13 -251.309 471.784)" fill="#D9D9D9"/>
</g>
<mask id="mask1_701_66569" style="mask-type:alpha" maskUnits="userSpaceOnUse" x="-1043" y="-542" width="2193" height="1551">
<g opacity="0.12">
<rect x="-56.0921" y="-98.4396" width="109.592" height="109.592" stroke="white" stroke-width="1.1536"/>
<rect x="53.5001" y="-98.4396" width="109.592" height="109.592" stroke="white" stroke-width="1.1536"/>
<rect x="163.092" y="-98.4396" width="109.592" height="109.592" stroke="white" stroke-width="1.1536"/>
<rect x="272.108" y="-99.0164" width="110.746" height="110.746" fill="white" fill-opacity="0.13"/>
<rect x="382.277" y="-98.4396" width="109.592" height="109.592" stroke="white" stroke-width="1.1536"/>
<rect x="491.292" y="-99.0164" width="110.746" height="110.746" fill="white" fill-opacity="0.13"/>
<rect x="601.462" y="-98.4396" width="109.592" height="109.592" stroke="white" stroke-width="1.1536"/>
<rect x="711.054" y="-98.4396" width="109.592" height="109.592" stroke="white" stroke-width="1.1536"/>
<rect x="820.646" y="-98.4396" width="109.592" height="109.592" stroke="white" stroke-width="1.1536"/>
<rect x="930.238" y="-98.4396" width="109.592" height="109.592" stroke="white" stroke-width="1.1536"/>
<rect x="1039.83" y="-98.4396" width="109.592" height="109.592" stroke="white" stroke-width="1.1536"/>
<rect x="-56.0921" y="12.3063" width="109.592" height="109.592" stroke="white" stroke-width="1.1536"/>
<rect x="53.5001" y="12.3063" width="109.592" height="109.592" stroke="white" stroke-width="1.1536"/>
<rect x="162.516" y="11.7295" width="110.746" height="110.746" fill="white" fill-opacity="0.13"/>
<rect x="272.685" y="12.3063" width="109.592" height="109.592" stroke="white" stroke-width="1.1536"/>
<rect x="381.7" y="11.7295" width="110.746" height="110.746" fill="white" fill-opacity="0.13"/>
<rect x="491.869" y="12.3063" width="109.592" height="109.592" stroke="white" stroke-width="1.1536"/>
<rect x="601.462" y="12.3063" width="109.592" height="109.592" stroke="white" stroke-width="1.1536"/>
<rect x="711.054" y="12.3063" width="109.592" height="109.592" stroke="white" stroke-width="1.1536"/>
<rect x="820.646" y="12.3063" width="109.592" height="109.592" stroke="white" stroke-width="1.1536"/>
<rect x="930.238" y="12.3063" width="109.592" height="109.592" stroke="white" stroke-width="1.1536"/>
<rect x="1039.83" y="12.3063" width="109.592" height="109.592" stroke="white" stroke-width="1.1536"/>
<rect x="-56.0921" y="123.052" width="109.592" height="109.592" stroke="white" stroke-width="1.1536"/>
<rect x="53.5001" y="123.052" width="109.592" height="109.592" stroke="white" stroke-width="1.1536"/>
<rect x="163.092" y="123.052" width="109.592" height="109.592" stroke="white" stroke-width="1.1536"/>
<rect x="272.108" y="122.476" width="110.746" height="110.746" fill="white" fill-opacity="0.13"/>
<rect x="382.277" y="123.052" width="109.592" height="109.592" stroke="white" stroke-width="1.1536"/>
<rect x="491.869" y="123.052" width="109.592" height="109.592" stroke="white" stroke-width="1.1536"/>
<rect x="601.462" y="123.052" width="109.592" height="109.592" stroke="white" stroke-width="1.1536"/>
<rect x="711.054" y="123.052" width="109.592" height="109.592" stroke="white" stroke-width="1.1536"/>
<rect x="820.646" y="123.052" width="109.592" height="109.592" stroke="white" stroke-width="1.1536"/>
<rect x="930.238" y="123.052" width="109.592" height="109.592" stroke="white" stroke-width="1.1536"/>
<rect x="1039.83" y="123.052" width="109.592" height="109.592" stroke="white" stroke-width="1.1536"/>
<rect x="-56.0921" y="233.798" width="109.592" height="109.592" stroke="white" stroke-width="1.1536"/>
<rect x="53.5001" y="233.798" width="109.592" height="109.592" stroke="white" stroke-width="1.1536"/>
<rect x="163.092" y="233.798" width="109.592" height="109.592" stroke="white" stroke-width="1.1536"/>
<rect x="272.685" y="233.798" width="109.592" height="109.592" stroke="white" stroke-width="1.1536"/>
<rect x="382.277" y="233.798" width="109.592" height="109.592" stroke="white" stroke-width="1.1536"/>
<rect x="491.869" y="233.798" width="109.592" height="109.592" stroke="white" stroke-width="1.1536"/>
<rect x="601.462" y="233.798" width="109.592" height="109.592" stroke="white" stroke-width="1.1536"/>
<rect x="711.054" y="233.798" width="109.592" height="109.592" stroke="white" stroke-width="1.1536"/>
<rect x="820.646" y="233.798" width="109.592" height="109.592" stroke="white" stroke-width="1.1536"/>
<rect x="930.238" y="233.798" width="109.592" height="109.592" stroke="white" stroke-width="1.1536"/>
<rect x="1039.83" y="233.798" width="109.592" height="109.592" stroke="white" stroke-width="1.1536"/>
<rect x="-56.0921" y="344.544" width="109.592" height="109.592" stroke="white" stroke-width="1.1536"/>
<rect x="53.5001" y="344.544" width="109.592" height="109.592" stroke="white" stroke-width="1.1536"/>
<rect x="162.516" y="343.967" width="110.746" height="110.746" fill="white" fill-opacity="0.13"/>
<rect x="272.685" y="344.544" width="109.592" height="109.592" stroke="white" stroke-width="1.1536"/>
<rect x="382.277" y="344.544" width="109.592" height="109.592" stroke="white" stroke-width="1.1536"/>
<rect x="491.869" y="344.544" width="109.592" height="109.592" stroke="white" stroke-width="1.1536"/>
<rect x="601.462" y="344.544" width="109.592" height="109.592" stroke="white" stroke-width="1.1536"/>
<rect x="711.054" y="344.544" width="109.592" height="109.592" stroke="white" stroke-width="1.1536"/>
<rect x="820.646" y="344.544" width="109.592" height="109.592" stroke="white" stroke-width="1.1536"/>
<rect x="930.238" y="344.544" width="109.592" height="109.592" stroke="white" stroke-width="1.1536"/>
<rect x="1039.83" y="344.544" width="109.592" height="109.592" stroke="white" stroke-width="1.1536"/>
<rect x="-56.0921" y="455.29" width="109.592" height="109.592" stroke="white" stroke-width="1.1536"/>
<rect x="52.9233" y="454.713" width="110.746" height="110.746" fill="white" fill-opacity="0.13"/>
<rect x="163.092" y="455.29" width="109.592" height="109.592" stroke="white" stroke-width="1.1536"/>
<rect x="272.108" y="454.713" width="110.746" height="110.746" fill="white" fill-opacity="0.13"/>
<rect x="382.277" y="455.29" width="109.592" height="109.592" stroke="white" stroke-width="1.1536"/>
<rect x="491.292" y="454.713" width="110.746" height="110.746" fill="white" fill-opacity="0.13"/>
<rect x="601.462" y="455.29" width="109.592" height="109.592" stroke="white" stroke-width="1.1536"/>
<rect x="711.054" y="455.29" width="109.592" height="109.592" stroke="white" stroke-width="1.1536"/>
<rect x="820.646" y="455.29" width="109.592" height="109.592" stroke="white" stroke-width="1.1536"/>
<rect x="930.238" y="455.29" width="109.592" height="109.592" stroke="white" stroke-width="1.1536"/>
<rect x="1039.83" y="455.29" width="109.592" height="109.592" stroke="white" stroke-width="1.1536"/>
<rect x="-56.6689" y="565.459" width="110.746" height="110.746" fill="white" fill-opacity="0.13"/>
<rect x="53.5001" y="566.036" width="109.592" height="109.592" stroke="white" stroke-width="1.1536"/>
<rect x="162.516" y="565.459" width="110.746" height="110.746" fill="white" fill-opacity="0.13"/>
<rect x="272.685" y="566.036" width="109.592" height="109.592" stroke="white" stroke-width="1.1536"/>
<rect x="381.7" y="565.459" width="110.746" height="110.746" fill="white" fill-opacity="0.13"/>
<rect x="491.869" y="566.036" width="109.592" height="109.592" stroke="white" stroke-width="1.1536"/>
<rect x="601.462" y="566.036" width="109.592" height="109.592" stroke="white" stroke-width="1.1536"/>
<rect x="711.054" y="566.036" width="109.592" height="109.592" stroke="white" stroke-width="1.1536"/>
<rect x="820.646" y="566.036" width="109.592" height="109.592" stroke="white" stroke-width="1.1536"/>
<rect x="930.238" y="566.036" width="109.592" height="109.592" stroke="white" stroke-width="1.1536"/>
<rect x="1039.83" y="566.036" width="109.592" height="109.592" stroke="white" stroke-width="1.1536"/>
<rect x="-56.0921" y="676.782" width="109.592" height="109.592" stroke="white" stroke-width="1.1536"/>
<rect x="52.9233" y="676.205" width="110.746" height="110.746" fill="white" fill-opacity="0.13"/>
<rect x="163.092" y="676.782" width="109.592" height="109.592" stroke="white" stroke-width="1.1536"/>
<rect x="272.108" y="676.205" width="110.746" height="110.746" fill="white" fill-opacity="0.13"/>
<rect x="382.277" y="676.782" width="109.592" height="109.592" stroke="white" stroke-width="1.1536"/>
<rect x="491.869" y="676.782" width="109.592" height="109.592" stroke="white" stroke-width="1.1536"/>
<rect x="601.462" y="676.782" width="109.592" height="109.592" stroke="white" stroke-width="1.1536"/>
<rect x="711.054" y="676.782" width="109.592" height="109.592" stroke="white" stroke-width="1.1536"/>
<rect x="820.646" y="676.782" width="109.592" height="109.592" stroke="white" stroke-width="1.1536"/>
<rect x="930.238" y="676.782" width="109.592" height="109.592" stroke="white" stroke-width="1.1536"/>
<rect x="1039.83" y="676.782" width="109.592" height="109.592" stroke="white" stroke-width="1.1536"/>
<rect x="-56.0921" y="787.528" width="109.592" height="109.592" stroke="white" stroke-width="1.1536"/>
<rect x="53.5001" y="787.528" width="109.592" height="109.592" stroke="white" stroke-width="1.1536"/>
<rect x="163.092" y="787.528" width="109.592" height="109.592" stroke="white" stroke-width="1.1536"/>
<rect x="272.685" y="787.528" width="109.592" height="109.592" stroke="white" stroke-width="1.1536"/>
<rect x="382.277" y="787.528" width="109.592" height="109.592" stroke="white" stroke-width="1.1536"/>
<rect x="491.869" y="787.528" width="109.592" height="109.592" stroke="white" stroke-width="1.1536"/>
<rect x="601.462" y="787.528" width="109.592" height="109.592" stroke="white" stroke-width="1.1536"/>
<rect x="711.054" y="787.528" width="109.592" height="109.592" stroke="white" stroke-width="1.1536"/>
<rect x="820.646" y="787.528" width="109.592" height="109.592" stroke="white" stroke-width="1.1536"/>
<rect x="930.238" y="787.528" width="109.592" height="109.592" stroke="white" stroke-width="1.1536"/>
<rect x="1039.83" y="787.528" width="109.592" height="109.592" stroke="white" stroke-width="1.1536"/>
<rect x="-56.0921" y="898.274" width="109.592" height="109.592" stroke="white" stroke-width="1.1536"/>
<rect x="53.5001" y="898.274" width="109.592" height="109.592" stroke="white" stroke-width="1.1536"/>
<rect x="163.092" y="898.274" width="109.592" height="109.592" stroke="white" stroke-width="1.1536"/>
<rect x="272.685" y="898.274" width="109.592" height="109.592" stroke="white" stroke-width="1.1536"/>
<rect x="382.277" y="898.274" width="109.592" height="109.592" stroke="white" stroke-width="1.1536"/>
<rect x="491.869" y="898.274" width="109.592" height="109.592" stroke="white" stroke-width="1.1536"/>
<rect x="601.462" y="898.274" width="109.592" height="109.592" stroke="white" stroke-width="1.1536"/>
<rect x="711.054" y="898.274" width="109.592" height="109.592" stroke="white" stroke-width="1.1536"/>
<rect x="820.646" y="898.274" width="109.592" height="109.592" stroke="white" stroke-width="1.1536"/>
<rect x="930.238" y="898.274" width="109.592" height="109.592" stroke="white" stroke-width="1.1536"/>
<rect x="1039.83" y="898.274" width="109.592" height="109.592" stroke="white" stroke-width="1.1536"/>
</g>
</mask>
<g mask="url(#mask1_701_66569)">
<g filter="url(#filter2_f_701_66569)">
<ellipse cx="580.401" cy="-170.014" rx="220.175" ry="157.363" transform="rotate(-15 580.401 -170.014)" fill="#D9D9D9"/>
</g>
</g>
</g>
<defs>
<filter id="filter0_f_701_66569" x="-235.824" y="-239.945" width="914.433" height="624.256" filterUnits="userSpaceOnUse" color-interpolation-filters="sRGB">
<feFlood flood-opacity="0" result="BackgroundImageFix"/>
<feBlend mode="normal" in="SourceGraphic" in2="BackgroundImageFix" result="shape"/>
<feGaussianBlur stdDeviation="60" result="effect1_foregroundBlur_701_66569"/>
</filter>
<filter id="filter1_f_701_66569" x="-551.006" y="199.472" width="599.395" height="544.624" filterUnits="userSpaceOnUse" color-interpolation-filters="sRGB">
<feFlood flood-opacity="0" result="BackgroundImageFix"/>
<feBlend mode="normal" in="SourceGraphic" in2="BackgroundImageFix" result="shape"/>
<feGaussianBlur stdDeviation="28" result="effect1_foregroundBlur_701_66569"/>
</filter>
<filter id="filter2_f_701_66569" x="243.824" y="-452.389" width="673.155" height="564.751" filterUnits="userSpaceOnUse" color-interpolation-filters="sRGB">
<feFlood flood-opacity="0" result="BackgroundImageFix"/>
<feBlend mode="normal" in="SourceGraphic" in2="BackgroundImageFix" result="shape"/>
<feGaussianBlur stdDeviation="60" result="effect1_foregroundBlur_701_66569"/>
</filter>
</defs>
</svg>
