<svg xmlns="http://www.w3.org/2000/svg" shape-rendering="geometricPrecision" viewBox="0 302 883 318" width="883" height="318"><rect width="100%" height="100%" fill="#FFFFFF" />
  <metadata>null</metadata>

<path d="
M 42.658 399.763
C 48.152 398.179 53.731 396.591 59.403 395.786
C 61.062 395.551 62.728 395.327 64.401 395.203
C 64.808 395.173 65.666 395.307 65.973 394.995
C 66.083 390.016 65.546 384.661 66.194 379.737
C 76.228 380.583 85.897 382.299 95.669 384.733
C 99.527 385.694 104.56 386.4 107.938 388.569
C 106.375 390.681 103.637 392.076 102.669 394.655
C 102.147 394.791 101.172 394.261 100.642 394.138
C 98.65 393.673 96.673 393.139 94.686 392.654
C 87.919 391.001 81.091 389.753 74.227 388.602
C 74.135 397.899 74.174 407.202 74.167 416.501
C 74.164 420.471 74.877 424.981 74.292 428.885
C 73.209 431.443 70.372 433.719 68.9 436.17
C 68.107 437.49 67.704 439.641 66.458 440.586
C 65.492 437.336 66.189 432.907 66.159 429.511
C 66.083 420.847 66.635 411.85 65.853 403.236
C 62.528 403.524 59.321 404.163 56.041 404.743
C 55.085 404.912 53.069 405.058 52.49 405.876
C 51.968 414.528 52.622 423.332 52.627 432.001
C 52.633 444.953 52.208 458.023 52.848 470.96
C 51.985 471.183 50.803 470.337 50.018 469.969
C 48.661 469.333 47.358 468.875 45.857 468.759
C 45.906 473.773 49.026 478.814 50.897 483.461
C 51.686 485.423 52.723 487.274 52.834 489.426
C 53.185 496.236 52.669 503.176 52.672 509.999
C 52.68 525.834 52.689 541.668 52.705 557.502
C 52.712 564.641 52.2 572.002 52.777 579.114
C 54.603 579.125 56.405 579.387 58.215 579.582
C 58.538 582.468 58.306 585.405 58.893 588.269
C 53.745 588.071 48.622 586.961 43.462 586.909
C 42.852 586.225 43.19 584.425 43.196 583.51
C 43.217 580.509 43.199 577.508 43.193 574.508
C 43.169 562.506 43.117 550.505 43.117 538.503
C 43.117 507.008 43.324 475.507 43.126 444.014
C 43.067 434.671 42.917 425.329 42.868 415.987
C 42.84 410.637 43.248 405.08 42.658 399.763 Z"
opacity="1" fill="rgb(230,30,36)" fill-rule="evenodd" />
<path d="
M 53.083 475.856
C 57.446 478.743 60.288 482.921 63.002 487.282
C 64.07 488.999 64.831 490.989 66.1 492.559
C 66.44 491.004 65.643 488.315 65.337 486.745
C 64.715 483.554 64.509 480.126 64.393 476.884
C 63.875 462.494 66.408 444.996 77.022 434.229
C 77.522 434.38 75.881 437.743 75.644 438.35
C 74.593 441.04 74.07 443.804 73.654 446.653
C 72.669 453.406 72.735 459.897 73.555 466.654
C 73.869 469.239 73.845 472.047 74.683 474.537
C 75.331 474.45 74.943 472.113 74.945 471.711
C 74.959 468.751 75.073 465.786 75.205 462.825
C 75.538 455.367 77.281 447.47 79.928 440.492
C 86.143 424.115 96.824 409.934 107.75 396.45
C 112.854 390.152 118.226 382.587 125.035 378.024
C 124.863 380.206 124.246 382.413 123.973 384.618
C 123.402 389.23 123.876 393.882 124.11 398.48
C 124.213 400.514 124.254 402.624 124.823 404.592
C 125.424 403.626 125.185 402.08 125.3 400.978
C 125.561 398.48 125.908 395.933 126.351 393.46
C 127.686 386.022 129.837 377.402 133.756 370.859
C 135.164 368.507 137.383 366.56 139.391 364.729
C 142.865 361.562 146.433 358.472 150.12 355.555
C 163.767 344.757 178.629 334.748 194.063 326.69
C 193.994 329.152 192.838 331.867 192.302 334.291
C 191.416 338.294 191 342.088 190.933 346.171
C 191.099 346.999 191.955 344.01 192.079 343.661
C 192.785 341.688 193.306 339.687 194.219 337.788
C 196.966 332.074 200.719 325.432 205.88 321.546
C 209.655 318.705 214.986 317.25 219.319 315.436
C 231.139 310.488 243.358 306.217 255.831 303.224
C 259.922 302.243 264.073 301.393 268.237 300.776
C 269.771 300.548 271.931 299.854 273.443 300.303
C 272.369 314.08 263.923 327.777 256.254 338.886
C 254.379 341.603 252.438 344.262 250.54 346.961
C 249.765 348.064 249.122 349.43 248.039 350.267
C 246.347 351.574 243.847 352.184 241.9 353.041
C 236.584 355.383 231.184 357.157 225.512 358.427
C 223.711 358.83 221.829 359.623 219.989 359.724
C 219.614 359.745 218.193 359.72 218.247 360.41
C 218.268 360.685 219.58 360.579 219.73 360.577
C 221.158 360.558 222.584 360.441 224.011 360.45
C 230.03 360.489 236.252 360.398 242.107 358.773
C 242.353 359.089 241.875 359.525 241.638 359.744
C 240.601 360.704 239.705 361.663 238.834 362.797
C 235.311 367.381 231.441 371.666 227.767 376.121
C 223.781 380.955 219.573 385.606 215.558 390.416
C 211.287 395.535 207.046 401.116 201.427 404.829
C 194.936 409.118 187.525 412.425 180.201 414.99
C 176.02 416.454 171.124 416.942 167.171 418.889
C 166.688 419.129 169.342 419.062 169.923 419.012
C 172.069 418.829 174.243 418.628 176.372 418.287
C 182.912 417.239 189.128 415.245 195.56 413.803
C 195.048 415.45 193.211 416.973 192.172 418.374
C 189.301 422.243 186.428 426.109 183.563 429.981
C 172.517 444.907 161.65 460.397 146.053 470.925
C 140.489 474.682 134.498 477.638 128.479 480.58
C 126.174 481.707 122.088 482.608 120.37 484.528
C 121.851 485.135 125.539 483.888 127.125 483.595
C 133.672 482.386 140.33 480.563 146.431 477.859
C 148.085 477.126 149.39 476.371 151.055 475.915
C 151.586 475.77 151.418 474.776 151.936 474.751
C 151.527 475.938 150.438 476.729 149.598 477.617
C 147.49 479.844 145.276 481.921 142.996 483.967
C 134.696 491.415 124.36 496.137 114.721 501.541
C 110.936 503.663 105.912 505.471 102.846 508.548
C 103.228 508.815 104.402 508.12 104.788 507.967
C 106.655 507.223 108.595 506.648 110.554 506.192
C 117.014 504.69 123.296 504.134 129.917 504.318
C 131.624 504.366 133.445 504.622 135.119 504.952
C 135.731 505.073 136.522 505.085 136.941 505.571
C 135.369 506.026 133.542 505.672 131.917 505.839
C 128.828 506.156 125.702 506.897 122.71 507.719
C 112.799 510.441 103.037 515.26 94.636 521.141
C 91.102 523.615 86.863 526.473 84.242 529.941
C 79.721 535.924 78.047 544.169 76.074 551.259
C 75.349 553.864 74.962 556.618 74.15 559.185
C 74.048 559.508 73.685 561.592 73.245 561.256
C 72.462 557.156 74.313 552.04 75.095 548.011
C 77.362 536.336 81.753 525.079 85.591 513.865
C 95.533 484.815 109.82 457.134 127.306 431.906
C 138.254 416.109 150.704 401.553 163.597 387.338
C 175.696 373.998 189.404 361.617 203.541 350.489
C 208.356 346.699 213.307 343.097 218.242 339.462
C 220.069 338.116 221.901 336.769 223.748 335.451
C 223.942 335.312 225.647 334.288 225.269 333.904
C 224.992 333.622 222.68 335.303 222.416 335.528
C 219.897 337.68 216.589 339.443 213.795 341.268
C 201.042 349.6 189.008 359.531 177.62 369.627
C 148.144 395.756 122.012 425.826 102.7 460.275
C 91.422 480.394 81.686 501.398 75.728 523.754
C 70.757 542.405 68.844 562.023 67.749 581.253
C 67.386 587.647 67.154 593.92 67.323 600.33
C 67.38 602.497 67.629 604.616 67.723 606.776
C 67.753 607.462 67.76 608.149 67.792 608.835
C 67.798 608.964 67.894 610.015 67.723 609.766
C 63.569 593.818 61.505 576.551 63.899 560.124
C 64.819 553.814 65.634 547.541 66.944 541.293
C 67.66 537.878 69.29 534.076 69.204 530.581
C 69.107 526.646 67.939 522.477 67.173 518.623
C 65.296 509.187 63.08 499.682 59.616 490.685
C 57.676 485.644 55 480.898 53.083 475.856 Z"
opacity="1" fill="rgb(228,28,34)" fill-rule="evenodd" />
<path d="
M 72.943 584.108
C 73.045 583.16 73.144 582.214 73.239 581.265
C 95.134 584.545 116.676 591.082 137.239 599.195
C 143.952 601.843 150.639 604.735 157.116 607.916
C 159.255 608.967 161.362 610.082 163.467 611.202
C 164.186 611.585 164.904 611.938 165.649 612.269
C 165.85 612.359 166.945 612.905 166.791 612.668
C 160.283 607.207 152.782 602.566 145.54 598.101
C 131.382 589.372 116.668 581.681 101.031 575.941
C 92.677 572.875 84.096 570.602 75.508 568.354
C 75.121 567.785 75.447 567.058 75.572 566.418
C 75.94 564.544 76.318 562.675 76.677 560.799
C 80.735 561.127 84.866 562.496 88.747 563.669
C 93.936 565.238 99.041 566.944 104.147 568.765
C 124.316 575.959 143.505 587.096 160.601 599.893
C 168.028 605.452 175.655 611.201 182.01 617.996
C 182.949 617.54 183.817 616.415 184.587 615.702
C 186.315 614.1 188.066 612.525 189.848 610.983
C 195.235 606.325 200.779 601.809 206.496 597.563
C 221.021 586.777 237.305 578.153 253.983 571.223
C 262.246 567.789 270.888 564.872 279.531 562.554
C 282.141 561.854 284.784 561.251 287.38 560.512
C 288.085 560.311 289.454 560.321 289.916 559.738
C 289.247 520.184 289.91 480.557 289.925 440.996
C 289.929 429.16 290.038 417.326 290.053 405.491
C 290.058 401.908 289.904 398.336 289.915 394.756
C 289.92 392.79 290.218 390.456 289.707 388.553
C 267.099 391.296 245.032 399.683 225.318 410.862
C 221.023 413.297 216.61 415.699 212.565 418.536
C 204.419 424.251 196.383 430.11 189 436.804
C 187.003 438.614 185.128 440.547 183.159 442.386
C 182.302 443.187 181.517 444.392 180.276 444.485
C 180.403 443.447 181.182 442.661 181.74 441.816
C 182.888 440.075 184.135 438.396 185.351 436.701
C 190.087 430.101 194.257 423.912 200.625 418.76
C 221.277 402.055 245.653 390.429 271.354 383.935
C 277.789 382.309 284.453 380.965 291.074 380.394
C 293.025 380.226 296.098 379.315 297.946 379.852
C 297.93 384.857 298.096 389.95 298.28 394.959
C 304.214 395.75 309.993 396.739 315.736 398.491
C 317.049 398.891 319.918 399.03 320.845 400.025
C 320.188 407.75 320.776 415.745 320.796 423.497
C 320.834 438.164 320.835 452.832 320.854 467.5
C 320.908 507.303 320.371 547.161 320.897 586.953
C 299.912 587.771 279.295 591.754 259.006 597.023
C 247.341 600.052 235.729 603.522 224.461 607.821
C 214.259 611.713 204.227 616.015 194.317 620.591
C 191.516 621.884 188.683 623.15 186.005 624.688
C 184.938 625.301 183.387 626.649 182.153 626.721
C 178.383 625.629 174.541 622.802 171.015 621.029
C 164.399 617.702 157.571 614.669 150.715 611.872
C 134.028 605.063 116.925 599.483 99.436 595.123
C 90.606 592.922 81.649 590.696 72.606 589.605
C 72.669 587.788 72.722 585.912 72.943 584.108 Z
M 199.512 611.029
C 199.093 612.48 201.917 610.516 202.435 610.231
C 205.417 608.587 208.602 607.321 211.671 605.85
C 219.71 601.995 228.018 598.804 236.354 595.667
C 254.097 588.991 272.649 584.762 291.242 581.282
C 295.646 580.458 300.128 579.859 304.584 579.402
C 306.764 579.179 309.157 579.245 311.29 578.804
C 310.944 576.305 311.27 573.535 311.267 571.008
C 311.263 565.674 311.256 560.341 311.256 555.007
C 311.256 538.674 311.265 522.34 311.261 506.007
C 311.256 483.84 311.299 461.674 311.27 439.507
C 311.259 431.84 311.272 424.174 311.271 416.507
C 311.27 412.761 310.962 408.866 311.278 405.14
C 306.949 404.998 302.582 403.581 298.239 403.219
C 297.713 417.118 298.146 431.091 298.159 444.997
C 298.184 470.663 298.237 496.331 298.175 521.997
C 298.149 532.627 298.149 543.26 298.18 553.89
C 298.189 556.976 298.225 560.062 298.176 563.148
C 298.16 564.155 298.456 565.725 297.948 566.621
C 272.454 571.022 247.393 581.11 225.135 594.209
C 216.314 599.4 207.971 605.323 199.512 611.029 Z"
opacity="1" fill="rgb(230,31,36)" fill-rule="evenodd" />
<path d="
M 185.926 474.107
C 186.001 473.327 186.229 472.514 186.655 471.852
C 189.981 466.686 195.468 471.63 199.122 473.57
C 211.025 479.889 222.596 486.903 234.272 493.628
C 237.871 495.701 244.983 498.158 244.797 503.14
C 244.63 507.614 237.833 509.868 234.583 511.757
C 223.811 518.021 212.952 524.136 202.183 530.4
C 198.672 532.442 192.582 537.696 188.498 534.787
C 184.385 531.856 185.902 523.945 185.89 519.496
C 185.864 509.497 185.875 499.497 185.874 489.498
C 185.873 484.43 185.443 479.151 185.926 474.107 Z"
opacity="1" fill="rgb(229,26,34)" fill-rule="evenodd" />
<path d="
M 352.995 509.174
C 353.888 507.743 354.439 505.913 355.123 504.355
C 356.922 500.261 358.658 496.132 360.477 492.047
C 366.833 477.771 373.254 463.531 379.706 449.301
C 381.763 444.763 383.855 440.228 385.859 435.664
C 386.469 434.273 386.775 432.382 387.637 431.155
C 392.014 430.765 396.605 431.146 401.004 431.164
C 402.277 431.169 405.166 430.644 406.152 431.373
C 415.031 450.327 423.663 469.645 431.555 489.032
C 433.465 493.724 435.564 498.379 437.615 503.015
C 438.31 504.586 440.347 507.39 440.089 509.137
C 438.182 509.849 435.626 509.43 433.613 509.433
C 429.255 509.441 424.476 509.987 420.163 509.374
C 419.032 508.736 418.743 506.711 418.295 505.568
C 417.418 503.33 416.365 501.157 415.5 498.911
C 415.014 497.647 414.666 495.99 413.599 495.129
C 407.252 495.868 400.379 495.18 393.996 494.981
C 389.016 494.825 383.975 495.203 379.007 494.859
C 376.879 499.463 375.802 505.493 372.622 509.513
C 371.065 510.148 368.329 509.496 366.649 509.47
C 362.12 509.399 357.56 509.62 353.049 509.513
C 353.031 509.4 353.013 509.287 352.995 509.174 Z
M 355.277 507.722
C 355.259 507.848 355.241 507.973 355.224 508.099
C 358.975 507.997 362.723 507.862 366.506 507.866
C 367.976 507.867 370.505 508.321 371.826 507.817
C 374.395 503.224 375.773 498.064 377.941 493.305
C 384.087 492.541 390.808 493.288 397.013 493.306
C 402.856 493.322 409.209 492.615 414.997 493.369
C 416.265 496.893 417.846 500.378 419.319 503.824
C 419.822 505.001 420.213 506.901 421.089 507.813
C 426.581 507.389 432.95 506.979 438.397 507.839
C 438.379 507.234 437.615 506.523 437.315 505.985
C 436.75 504.971 436.3 503.876 435.802 502.827
C 433.712 498.42 431.99 493.802 430.052 489.323
C 424.196 475.792 418.089 462.358 412.126 448.873
C 410.605 445.434 408.991 442.018 407.584 438.528
C 406.914 436.865 406.237 433.887 404.926 432.65
C 399.637 433.136 394.178 432.699 388.866 432.807
C 385.506 438.796 382.986 445.628 380.304 451.956
C 374.663 465.266 368.492 478.404 362.485 491.551
C 360.065 496.848 358.272 502.724 355.277 507.722 Z"
opacity="1" fill="none" stroke="rgb(0,0,0)" stroke-width="2.5" stroke-linejoin="round" stroke-linecap="round" fill-rule="evenodd" />
<path d="
M 384.064 479.103
C 386.968 472.232 390.08 465.42 392.985 458.536
C 394.005 456.118 394.648 452.028 396.524 450.194
C 397.439 450.417 397.241 451.124 397.535 451.905
C 398.163 453.572 398.861 455.26 399.572 456.893
C 401.659 461.683 403.564 466.552 405.631 471.357
C 406.706 473.855 408.624 476.718 408.93 479.443
C 403.091 479.081 396.924 479.664 391.007 479.703
C 388.959 479.717 385.665 480.388 383.771 479.669
C 383.869 479.481 383.966 479.292 384.064 479.103 Z
M 386.464 477.676
C 386.445 477.818 386.426 477.96 386.407 478.102
C 390.894 477.626 395.488 477.911 400.005 477.905
C 402.115 477.903 404.858 477.536 406.884 478.155
C 407.205 477.87 406.592 477.286 406.437 477.029
C 405.718 475.834 405.252 474.487 404.682 473.22
C 402.561 468.497 400.754 463.631 398.615 458.914
C 398.097 457.773 397.701 456.575 397.209 455.427
C 397.068 455.097 397.041 454.334 396.598 454.332
C 395.309 455.969 394.685 458.728 393.851 460.663
C 392.069 464.799 390.342 468.955 388.512 473.068
C 387.827 474.607 387.387 476.252 386.464 477.676 Z"
opacity="0.996" fill="none" stroke="rgb(0,0,0)" stroke-width="2.5" stroke-linejoin="round" stroke-linecap="round" fill-rule="evenodd" />
<path d="
M 444.44 435.092
C 444.572 433.768 445.014 432.278 445.658 431.115
C 451.083 421.316 466.56 425.598 465.693 436.967
C 465.106 444.661 456.769 448.478 450.13 445.444
C 447.681 444.325 446.094 442.094 445.053 439.71
C 444.422 438.263 444.283 436.656 444.44 435.092 Z
M 446.38 434.052
C 443.79 445.212 461.501 449.164 463.965 438.084
C 464.239 436.853 464.145 435.617 463.898 434.394
C 462.032 425.139 448.555 424.686 446.38 434.052 Z"
opacity="1" fill="none" stroke="rgb(0,0,0)" stroke-width="2.5" stroke-linejoin="round" stroke-linecap="round" fill-rule="evenodd" />
<path d="
M 445.935 451.814
C 447.587 451.466 449.336 451.723 451.015 451.711
C 455.274 451.68 459.517 451.987 463.759 452.088
C 464.409 453.421 463.985 455.535 463.988 457.002
C 463.995 460.502 463.99 464.002 463.988 467.502
C 463.984 476.835 463.988 486.168 464.004 495.501
C 464.01 498.501 463.973 501.501 463.994 504.5
C 464.004 506.056 464.22 507.843 463.851 509.36
C 457.948 509.237 451.935 509.213 446.031 509.422
C 445.436 507.511 445.761 505.001 445.787 503.008
C 445.841 499.008 445.866 495.011 445.869 491.011
C 445.877 482.345 445.907 473.678 445.863 465.012
C 445.842 460.807 445.118 455.933 445.935 451.814 Z
M 447.496 454.607
C 446.721 458.4 447.444 463.098 447.437 466.986
C 447.421 475.818 447.398 484.65 447.371 493.482
C 447.36 496.984 447.283 500.487 447.307 503.99
C 447.315 505.136 446.958 506.993 447.421 508.005
C 451.076 506.977 455.741 507.742 459.52 507.738
C 460.463 507.736 461.823 508.154 462.703 507.878
C 463.061 495.161 462.442 482.261 462.45 469.508
C 462.453 466.007 462.452 462.505 462.463 459.003
C 462.468 457.367 462.176 454.986 462.76 453.446
C 459.712 453.139 456.484 453.535 453.421 453.62
C 451.439 453.674 449.523 453.32 447.596 453.894
C 447.562 454.132 447.529 454.369 447.496 454.607 Z"
opacity="1" fill="none" stroke="rgb(0,0,0)" stroke-width="2.5" stroke-linejoin="round" stroke-linecap="round" fill-rule="evenodd" />
<path d="
M 480.527 433.113
C 480.551 432.584 480.497 432.881 480.777 432.242
C 486.068 432.339 491.402 432.357 496.693 432.235
C 497.072 435.569 496.716 439.142 496.724 442.502
C 496.738 448.336 496.912 454.169 496.888 460.002
C 496.879 462.355 496.546 464.864 496.77 467.192
C 497.02 467.556 497.39 466.82 497.555 466.609
C 498.443 465.471 499.418 464.444 500.367 463.361
C 502.593 460.823 504.756 458.242 507.048 455.761
C 514.144 448.079 520.814 439.91 528.022 432.358
C 529.697 431.78 532.228 432.242 534.011 432.246
C 538.147 432.254 542.863 431.648 546.933 432.351
C 546.624 433.156 545.805 433.624 545.225 434.25
C 544.054 435.515 542.905 436.804 541.731 438.067
C 538.296 441.76 535.007 445.588 531.579 449.289
C 528.128 453.2 524.7 457.171 521.422 461.227
C 520.504 462.363 518.552 463.676 518.127 465.037
C 526.497 475.669 533.832 487.106 542.035 497.868
C 544.048 500.51 546.069 503.189 547.907 505.956
C 548.231 506.445 550.009 508.442 549.921 508.78
C 545.482 508.489 540.951 508.687 536.503 508.707
C 534.635 508.715 532.033 509.177 530.264 508.6
C 524.735 501.603 519.469 494.269 514.395 486.936
C 512.854 484.709 511.285 482.51 509.688 480.324
C 508.917 479.268 508.075 477.845 506.944 477.171
C 503.656 480.857 500.421 484.576 497.095 488.227
C 496.463 490.114 496.913 492.774 496.914 494.762
C 496.916 499.372 496.749 504.021 496.913 508.624
C 496.278 509.156 493.591 508.717 492.725 508.718
C 488.696 508.724 484.617 508.546 480.595 508.792
C 480.085 506.301 480.409 503.532 480.403 500.997
C 480.391 495.83 480.406 490.664 480.403 485.497
C 480.392 468.061 480.933 450.532 480.527 433.113 Z"
opacity="1" fill="rgb(238,33,35)" fill-rule="evenodd" />
<path d="
M 552.874 490.595
C 553.616 487.323 554.676 484.097 557.03 481.595
C 559.585 478.879 563.104 477.748 566.674 477.085
C 573.815 475.758 581.461 476.05 588.698 476.235
C 588.431 473.922 588.623 471.724 587.481 469.583
C 583.909 462.893 573.622 464.386 567.539 465.908
C 565.816 466.34 564.029 466.969 562.45 467.789
C 561.884 468.082 560.97 468.912 560.331 468.689
C 559.714 465.838 558.529 463.097 557.706 460.298
C 557.373 459.164 556.722 457.919 556.765 456.74
C 559.233 455.379 561.822 454.345 564.524 453.548
C 576.224 450.1 594.326 449.407 601.224 461.705
C 605.67 469.633 603.991 480.287 603.984 489.006
C 603.981 493.839 604.005 498.672 603.991 503.505
C 603.988 504.747 604.53 507.712 603.906 508.723
C 599.351 508.583 594.681 508.519 590.13 508.748
C 589.766 506.709 589.897 504.611 589.646 502.558
C 580.227 514.209 556.368 512.445 553.054 496.16
C 552.681 494.329 552.61 492.446 552.874 490.595 Z
M 568.375 490.554
C 566.933 498.407 577.012 500.217 582.51 497.854
C 584.779 496.879 587.125 495.166 588.02 492.764
C 588.814 490.63 588.452 487.996 588.636 485.773
C 582.194 486.101 571.659 483.281 568.375 490.554 Z"
opacity="1" fill="rgb(237,33,38)" fill-rule="evenodd" />
<path d="
M 616.404 430.557
C 616.47 430.332 616.536 430.107 616.601 429.882
C 619.969 429.964 623.34 430.031 626.71 429.988
C 628.403 429.967 630.55 429.59 632.18 430.07
C 632.41 439.433 632.26 448.855 632.078 458.222
C 632.755 458.384 633.222 457.474 633.676 457.013
C 634.815 455.854 636.062 454.858 637.483 454.063
C 641.556 451.785 646.728 451.007 651.337 451.521
C 653.358 451.746 655.467 452.147 657.371 452.873
C 671.335 458.203 669.086 475.492 669.118 487.503
C 669.128 491.169 669.172 494.834 669.173 498.5
C 669.174 501.629 668.5 505.755 669.261 508.783
C 664.293 508.227 658.44 508.328 653.468 508.82
C 652.662 506.342 653.339 502.519 653.34 499.901
C 653.341 493.435 653.347 486.969 653.328 480.504
C 653.318 476.849 653.766 472.772 651.725 469.537
C 647.411 462.702 636.042 465.287 633.14 472.048
C 631.541 475.773 632.163 480.697 632.168 484.657
C 632.176 490.071 632.204 495.484 632.231 500.898
C 632.244 503.398 631.838 506.267 632.225 508.722
C 627.127 509.554 621.646 508.266 616.488 508.854
C 615.778 507.132 616.382 503.901 616.372 501.999
C 616.343 496.668 616.337 491.336 616.328 486.004
C 616.299 467.541 615.955 449.014 616.404 430.557 Z"
opacity="1" fill="rgb(238,33,37)" fill-rule="evenodd" />
<path d="
M 678.406 489.077
C 679.15 486.694 679.92 484.285 681.557 482.339
C 684.672 478.634 689.635 477.201 694.283 476.743
C 700.81 476.098 707.322 476.605 713.853 476.271
C 713.779 473.912 713.85 471.532 712.627 469.413
C 709.164 463.413 699.446 464.255 693.711 465.752
C 691.593 466.305 689.518 466.986 687.534 467.924
C 686.948 468.202 685.942 469.087 685.412 468.571
C 684.547 464.634 683.449 460.526 681.899 456.8
C 690.704 451.886 702.587 450.285 712.429 452.404
C 718.158 453.638 723.508 456.361 726.446 461.636
C 730.912 469.655 729.399 480.172 729.413 489.005
C 729.421 493.839 729.442 498.672 729.404 503.506
C 729.394 504.72 729.973 507.74 729.353 508.694
C 724.86 508.515 719.801 509.378 715.394 508.664
C 715.408 506.759 715.203 504.799 715.095 502.897
C 711.554 506.054 708.659 508.555 703.847 509.546
C 692.756 511.831 678.915 506.813 678.184 494.028
C 678.09 492.386 678.055 490.692 678.406 489.077 Z
M 693.41 491.077
C 692.514 498.939 703.272 500.158 708.598 497.808
C 713.89 495.473 713.796 490.732 713.947 485.783
C 710.471 485.684 706.984 485.662 703.503 485.702
C 699.16 485.752 694.827 486.311 693.41 491.077 Z"
opacity="1" fill="rgb(236,34,37)" fill-rule="evenodd" />
<path d="
M 738.475 492.619
C 739.103 488.621 739.664 484.884 742.509 481.733
C 748.044 475.604 758.206 476.387 765.679 476.32
C 768.377 476.296 771.21 476.067 773.89 476.246
C 773.933 474.827 773.961 473.262 773.576 471.885
C 771.11 463.068 759.732 464.195 752.686 466.027
C 750.371 466.629 747.434 468.738 745.105 468.778
C 744.615 465.969 743.561 463.267 742.855 460.51
C 742.545 459.3 742.017 458.106 742.154 456.849
C 746.634 454.221 752.022 452.92 757.104 452.117
C 760.876 451.521 764.886 451.373 768.681 451.799
C 771.868 452.158 775.063 452.795 778.016 454.086
C 786.039 457.593 788.997 465.277 789.504 473.503
C 790.224 485.193 789.033 496.987 789.525 508.674
C 786.502 509.3 782.617 508.725 779.518 508.669
C 778.197 508.646 776.512 508.968 775.257 508.641
C 775.325 507.281 775.39 505.918 775.429 504.556
C 775.44 504.164 775.555 503.423 775.208 503.159
C 765.268 515.748 737.742 510.865 738.475 492.619 Z
M 753.913 490.574
C 752.738 498.715 763.698 500.458 769.257 497.518
C 774.312 494.844 773.722 490.713 774.123 485.794
C 772.7 485.218 770.063 485.762 768.499 485.765
C 763.413 485.775 755.918 484.558 753.913 490.574 Z"
opacity="1" fill="rgb(236,34,36)" fill-rule="evenodd" />
<path d="
M 801.752 452.716
C 805.502 452.577 809.25 452.682 813.001 452.612
C 813.994 452.593 816.291 452.178 816.989 452.867
C 816.842 454.747 817.174 456.684 816.962 458.554
C 818.31 457.84 819.246 456.369 820.479 455.444
C 822.681 453.792 825.409 452.681 828.091 452.109
C 830.854 451.52 833.701 451.446 836.508 451.664
C 838.642 451.831 840.918 452.282 842.911 453.068
C 857.108 458.672 854.311 476.85 854.274 488.997
C 854.264 492.164 854.257 495.331 854.255 498.498
C 854.252 501.923 854.025 505.452 854.3 508.864
C 849.392 508.346 843.868 508.437 838.951 508.839
C 838.597 508.185 838.825 506.934 838.825 506.182
C 838.825 503.957 838.809 501.732 838.8 499.507
C 838.774 493.342 838.708 487.177 838.705 481.012
C 838.704 477.358 839.076 473.347 837.213 470.047
C 832.891 462.39 821.648 464.871 818.414 472.114
C 816.674 476.01 817.244 480.84 817.251 485.002
C 817.264 492.891 816.927 500.883 817.347 508.759
C 813.823 508.218 809.854 508.633 806.29 508.646
C 804.937 508.651 803.123 508.986 801.835 508.58
C 802.311 499.446 801.802 490.155 801.806 481.005
C 801.809 471.618 802.317 462.085 801.752 452.716 Z"
opacity="1" fill="rgb(237,34,36)" fill-rule="evenodd" />
<path d="
M 865.951 433.566
C 866.325 432.368 866.903 431.256 867.695 430.283
C 874.149 422.362 886.89 430.074 883.831 439.523
C 883.428 440.769 882.754 441.935 881.915 442.938
C 875.522 450.587 863.099 442.691 865.951 433.566 Z"
opacity="1" fill="rgb(238,34,39)" fill-rule="evenodd" />
<path d="
M 867.109 452.639
C 872.329 452.849 877.626 452.187 882.836 452.643
C 881.951 464.801 882.777 477.306 882.788 489.497
C 882.791 493.83 882.792 498.163 882.788 502.495
C 882.786 504.469 882.423 506.941 882.847 508.844
C 877.672 508.387 872.352 508.73 867.16 508.726
C 867.456 501.187 867.091 493.548 867.089 485.997
C 867.087 474.884 867.335 463.747 867.109 452.639 Z"
opacity="1" fill="rgb(233,34,37)" fill-rule="evenodd" />

</svg>
