<svg xmlns="http://www.w3.org/2000/svg" shape-rendering="geometricPrecision" viewBox="42 302 278 318" width="32" height="32">
  <path d="M 42.658 399.763 C 48.152 398.179 53.731 396.591 59.403 395.786 C 61.062 395.551 62.728 395.327 64.401 395.203 C 64.808 395.173 65.666 395.307 65.973 394.995 C 66.083 390.016 65.546 384.661 66.194 379.737 C 76.228 380.583 85.897 382.299 95.669 384.733 C 99.527 385.694 104.56 386.4 107.938 388.569 C 106.375 390.681 103.637 392.076 102.669 394.655 C 102.147 394.791 101.172 394.261 100.642 394.138 C 98.65 393.673 96.673 393.139 94.686 392.654 C 87.919 391.001 81.091 389.753 74.227 388.602 C 74.135 397.899 74.174 407.202 74.167 416.501 C 74.164 420.471 74.877 424.981 74.292 428.885 C 73.209 431.443 70.372 433.719 68.9 436.17 C 68.107 437.49 67.704 439.641 66.458 440.586 C 65.492 437.336 66.189 432.907 66.159 429.511 C 66.083 420.847 66.635 411.85 65.853 403.236 C 62.528 403.524 59.321 404.163 56.041 404.743 C 55.085 404.912 53.069 405.058 52.49 405.876 C 51.968 414.528 52.622 423.332 52.627 432.001 C 52.633 444.953 52.208 458.023 52.848 470.96 C 51.985 471.183 50.803 470.337 50.018 469.969 C 48.661 469.333 47.358 468.875 45.857 468.759 C 45.906 473.773 49.026 478.814 50.897 483.461 C 51.686 485.423 52.723 487.274 52.834 489.426 C 53.185 496.236 52.669 503.176 52.672 509.999 C 52.68 525.834 52.689 541.668 52.705 557.502 C 52.712 564.641 52.2 572.002 52.777 579.114 C 54.603 579.125 56.405 579.387 58.215 579.582 C 58.538 582.468 58.306 585.405 58.893 588.269 C 53.745 588.071 48.622 586.961 43.462 586.909 C 42.852 586.225 43.19 584.425 43.196 583.51 C 43.217 580.509 43.199 577.508 43.193 574.508 C 43.169 562.506 43.117 550.505 43.117 538.503 C 43.117 507.008 43.324 475.507 43.126 444.014 C 43.067 434.671 42.917 425.329 42.868 415.987 C 42.84 410.637 43.248 405.08 42.658 399.763 Z" fill="rgb(230,30,36)" fill-rule="evenodd"/>
  <path d="M 53.083 475.856 C 57.446 478.743 60.288 482.921 63.002 487.282 C 64.07 488.999 64.831 490.989 66.1 492.559 C 66.44 491.004 65.643 488.315 65.337 486.745 C 64.715 483.554 64.509 480.126 64.393 476.884 C 63.875 462.494 66.408 444.996 77.022 434.229 C 77.522 434.38 75.881 437.743 75.644 438.35 C 74.593 441.04 74.07 443.804 73.654 446.653 C 72.669 453.406 72.735 459.897 73.555 466.654 C 73.869 469.239 73.845 472.047 74.683 474.537 C 75.331 474.45 74.943 472.113 74.945 471.711 C 74.959 468.751 75.073 465.786 75.205 462.825 C 75.538 455.367 77.281 447.47 79.928 440.492 C 86.143 424.115 96.824 409.934 107.75 396.45 C 112.854 390.152 118.226 382.587 125.035 378.024 C 124.863 380.206 124.246 382.413 123.973 384.618 C 123.402 389.23 123.876 393.882 124.11 398.48 C 124.213 400.514 124.254 402.624 124.823 404.592 C 125.424 403.626 125.185 402.08 125.3 400.978 C 125.561 398.48 125.908 395.933 126.351 393.46 C 127.686 386.022 129.837 377.402 133.756 370.859 C 135.164 368.507 137.383 366.56 139.391 364.729 C 142.865 361.562 146.433 358.472 150.12 355.555 C 163.767 344.757 178.629 334.748 194.063 326.69 C 193.994 329.152 192.838 331.867 192.302 334.291 C 191.416 338.294 191 342.088 190.933 346.171 C 191.099 346.999 191.955 344.01 192.079 343.661 C 192.785 341.688 193.306 339.687 194.219 337.788 C 196.966 332.074 200.719 325.432 205.88 321.546 C 209.655 318.705 214.986 317.25 219.319 315.436 C 231.139 310.488 243.358 306.217 255.831 303.224 C 259.922 302.243 264.073 301.393 268.237 300.776 C 269.771 300.548 271.931 299.854 273.443 300.303 C 272.369 314.08 263.923 327.777 256.254 338.886 C 254.379 341.603 252.438 344.262 250.54 346.961 C 249.765 348.064 249.122 349.43 248.039 350.267 C 246.347 351.574 243.847 352.184 241.9 353.041 C 236.584 355.383 231.184 357.157 225.512 358.427 C 223.711 358.83 221.829 359.623 219.989 359.724 C 219.614 359.745 218.193 359.72 218.247 360.41 C 218.268 360.685 219.58 360.579 219.73 360.577 C 221.158 360.558 222.584 360.441 224.011 360.45 C 230.03 360.489 236.252 360.398 242.107 358.773 C 242.353 359.089 241.875 359.525 241.638 359.744 C 240.601 360.704 239.705 361.663 238.834 362.797 C 235.311 367.381 231.441 371.666 227.767 376.121 C 223.781 380.955 219.573 385.606 215.558 390.416 C 211.287 395.535 207.046 401.116 201.427 404.829 C 194.936 409.118 187.525 412.425 180.201 414.99 C 176.02 416.454 171.124 416.942 167.171 418.889 C 166.688 419.129 169.342 419.062 169.923 419.012 C 172.069 418.829 174.243 418.628 176.372 418.287 C 182.912 417.239 189.128 415.245 195.56 413.803 C 195.048 415.45 193.211 416.973 192.172 418.374 C 189.301 422.243 186.428 426.109 183.563 429.981 C 172.517 444.907 161.65 460.397 146.053 470.925 C 140.489 474.682 134.498 477.638 128.479 480.58 C 126.174 481.707 122.088 482.608 120.37 484.528 C 121.851 485.135 125.539 483.888 127.125 483.595 C 133.672 482.386 140.33 480.563 146.431 477.859 C 148.085 477.126 149.39 476.371 151.055 475.915 C 151.586 475.77 151.418 474.776 151.936 474.751 C 151.527 475.938 150.438 476.729 149.598 477.617 C 147.49 479.844 145.276 481.921 142.996 483.967 C 134.696 491.415 124.36 496.137 114.721 501.541 C 110.936 503.663 105.912 505.471 102.846 508.548 C 103.228 508.815 104.402 508.12 104.788 507.967 C 106.655 507.223 108.595 506.648 110.554 506.192 C 117.014 504.69 123.296 504.134 129.917 504.318 C 131.624 504.366 133.445 504.622 135.119 504.952 C 135.731 505.073 136.522 505.085 136.941 505.571 C 135.369 506.026 133.542 505.672 131.917 505.839 C 128.828 506.156 125.702 506.897 122.71 507.719 C 112.799 510.441 103.037 515.26 94.636 521.141 C 91.102 523.615 86.863 526.473 84.242 529.941 C 79.721 535.924 78.047 544.169 76.074 551.259 C 75.349 553.864 74.962 556.618 74.15 559.185 C 74.048 559.508 73.685 561.592 73.245 561.256 C 72.462 557.156 74.313 552.04 75.095 548.011 C 77.362 536.336 81.753 525.079 85.591 513.865 C 95.533 484.815 109.82 457.134 127.306 431.906 C 138.254 416.109 150.704 401.553 163.597 387.338 C 175.696 373.998 189.404 361.617 203.541 350.489 C 208.356 346.699 213.307 343.097 218.242 339.462 C 220.069 338.116 221.901 336.769 223.748 335.451 C 223.942 335.312 225.647 334.288 225.269 333.904 C 224.992 333.622 222.68 335.303 222.416 335.528 C 219.897 337.68 216.589 339.443 213.795 341.268 C 201.042 349.6 189.008 359.531 177.62 369.627 C 148.144 395.756 122.012 425.826 102.7 460.275 C 91.422 480.394 81.686 501.398 75.728 523.754 C 70.757 542.405 68.844 562.023 67.749 581.253 C 67.386 587.647 67.154 593.92 67.323 600.33 C 67.38 602.497 67.629 604.616 67.723 606.776 C 67.753 607.462 67.76 608.149 67.792 608.835 C 67.798 608.964 67.894 610.015 67.723 609.766 C 63.569 593.818 61.505 576.551 63.899 560.124 C 64.819 553.814 65.634 547.541 66.944 541.293 C 67.66 537.878 69.29 534.076 69.204 530.581 C 69.107 526.646 67.939 522.477 67.173 518.623 C 65.296 509.187 63.08 499.682 59.616 490.685 C 57.676 485.644 55 480.898 53.083 475.856 Z" fill="rgb(228,28,34)" fill-rule="evenodd"/>
  <path d="M 72.943 584.108 C 73.045 583.16 73.144 582.214 73.239 581.265 C 95.134 584.545 116.676 591.082 137.239 599.195 C 143.952 601.843 150.639 604.735 157.116 607.916 C 159.255 608.967 161.362 610.082 163.467 611.202 C 164.186 611.585 164.904 611.938 165.649 612.269 C 165.85 612.359 166.945 612.905 166.791 612.668 C 160.283 607.207 152.782 602.566 145.54 598.101 C 131.382 589.372 116.668 581.681 101.031 575.941 C 92.677 572.875 84.096 570.602 75.508 568.354 C 75.121 567.785 75.447 567.058 75.572 566.418 C 75.94 564.544 76.318 562.675 76.677 560.799 C 80.735 561.127 84.866 562.496 88.747 563.669 C 93.936 565.238 99.041 566.944 104.147 568.765 C 124.316 575.959 143.505 587.096 160.601 599.893 C 168.028 605.452 175.655 611.201 182.01 617.996 C 182.949 617.54 183.817 616.415 184.587 615.702 C 186.315 614.1 188.066 612.525 189.848 610.983 C 195.235 606.325 200.779 601.809 206.496 597.563 C 221.021 586.777 237.305 578.153 253.983 571.223 C 262.246 567.789 270.888 564.872 279.531 562.554 C 282.141 561.854 284.784 561.251 287.38 560.512 C 288.085 560.311 289.454 560.321 289.916 559.738 C 289.247 520.184 289.91 480.557 289.925 440.996 C 289.929 429.16 290.038 417.326 290.053 405.491 C 290.058 401.908 289.904 398.336 289.915 394.756 C 289.92 392.79 290.218 390.456 289.707 388.553 C 267.099 391.296 245.032 399.683 225.318 410.862 C 221.023 413.297 216.61 415.699 212.565 418.536 C 204.419 424.251 196.383 430.11 189 436.804 C 187.003 438.614 185.128 440.547 183.159 442.386 C 182.302 443.187 181.517 444.392 180.276 444.485 C 180.403 443.447 181.182 442.661 181.74 441.816 C 182.888 440.075 184.135 438.396 185.351 436.701 C 190.087 430.101 194.257 423.912 200.625 418.76 C 221.277 402.055 245.653 390.429 271.354 383.935 C 277.789 382.309 284.453 380.965 291.074 380.394 C 293.025 380.226 296.098 379.315 297.946 379.852 C 297.93 384.857 298.096 389.95 298.28 394.959 C 304.214 395.75 309.993 396.739 315.736 398.491 C 317.049 398.891 319.918 399.03 320.845 400.025 C 320.188 407.75 320.776 415.745 320.796 423.497 C 320.834 438.164 320.835 452.832 320.854 467.5 C 320.908 507.303 320.371 547.161 320.897 586.953 C 299.912 587.771 279.295 591.754 259.006 597.023 C 247.341 600.052 235.729 603.522 224.461 607.821 C 214.259 611.713 204.227 616.015 194.317 620.591 C 191.516 621.884 188.683 623.15 186.005 624.688 C 184.938 625.301 183.387 626.649 182.153 626.721 C 178.383 625.629 174.541 622.802 171.015 621.029 C 164.399 617.702 157.571 614.669 150.715 611.872 C 134.028 605.063 116.925 599.483 99.436 595.123 C 90.606 592.922 81.649 590.696 72.606 589.605 C 72.669 587.788 72.722 585.912 72.943 584.108 Z M 199.512 611.029 C 199.093 612.48 201.917 610.516 202.435 610.231 C 205.417 608.587 208.602 607.321 211.671 605.85 C 219.71 601.995 228.018 598.804 236.354 595.667 C 254.097 588.991 272.649 584.762 291.242 581.282 C 295.646 580.458 300.128 579.859 304.584 579.402 C 306.764 579.179 309.157 579.245 311.29 578.804 C 310.944 576.305 311.27 573.535 311.267 571.008 C 311.263 565.674 311.256 560.341 311.256 555.007 C 311.256 538.674 311.265 522.34 311.261 506.007 C 311.256 483.84 311.299 461.674 311.27 439.507 C 311.259 431.84 311.272 424.174 311.271 416.507 C 311.27 412.761 310.962 408.866 311.278 405.14 C 306.949 404.998 302.582 403.581 298.239 403.219 C 297.713 417.118 298.146 431.091 298.159 444.997 C 298.184 470.663 298.237 496.331 298.175 521.997 C 298.149 532.627 298.149 543.26 298.18 553.89 C 298.189 556.976 298.225 560.062 298.176 563.148 C 298.16 564.155 298.456 565.725 297.948 566.621 C 272.454 571.022 247.393 581.11 225.135 594.209 C 216.314 599.4 207.971 605.323 199.512 611.029 Z" fill="rgb(230,31,36)" fill-rule="evenodd"/>
  <path d="M 185.926 474.107 C 186.001 473.327 186.229 472.514 186.655 471.852 C 189.981 466.686 195.468 471.63 199.122 473.57 C 211.025 479.889 222.596 486.903 234.272 493.628 C 237.871 495.701 244.983 498.158 244.797 503.14 C 244.63 507.614 237.833 509.868 234.583 511.757 C 223.811 518.021 212.952 524.136 202.183 530.4 C 198.672 532.442 192.582 537.696 188.498 534.787 C 184.385 531.856 185.902 523.945 185.89 519.496 C 185.864 509.497 185.875 499.497 185.874 489.498 C 185.873 484.43 185.443 479.151 185.926 474.107 Z" fill="rgb(229,26,34)" fill-rule="evenodd"/>
</svg>
