<svg width="1347" height="1168" viewBox="0 0 1347 1168" fill="none" xmlns="http://www.w3.org/2000/svg">
<mask id="mask0_738_8288" style="mask-type:alpha" maskUnits="userSpaceOnUse" x="-305" y="0" width="1653" height="1168">
<g opacity="0.12">
<rect x="-56.8958" y="0.434508" width="82.5566" height="82.5566" stroke="white" stroke-width="0.869016"/>
<rect x="25.6608" y="0.434508" width="82.5566" height="82.5566" stroke="white" stroke-width="0.869016"/>
<rect x="108.217" y="0.434508" width="82.5566" height="82.5566" stroke="white" stroke-width="0.869016"/>
<rect x="190.774" y="0.434508" width="82.5566" height="82.5566" stroke="white" stroke-width="0.869016"/>
<rect x="273.331" y="0.434508" width="82.5566" height="82.5566" stroke="white" stroke-width="0.869016"/>
<rect x="355.887" y="0.434508" width="82.5566" height="82.5566" stroke="white" stroke-width="0.869016"/>
<rect x="438.444" y="0.434508" width="82.5566" height="82.5566" stroke="white" stroke-width="0.869016"/>
<rect x="521" y="0.434508" width="82.5566" height="82.5566" stroke="white" stroke-width="0.869016"/>
<rect x="603.557" y="0.434508" width="82.5566" height="82.5566" stroke="white" stroke-width="0.869016"/>
<rect x="686.113" y="0.434508" width="82.5566" height="82.5566" stroke="white" stroke-width="0.869016"/>
<rect x="768.67" y="0.434508" width="82.5566" height="82.5566" stroke="white" stroke-width="0.869016"/>
<rect x="851.227" y="0.434508" width="82.5566" height="82.5566" stroke="white" stroke-width="0.869016"/>
<rect x="933.783" y="0.434508" width="82.5566" height="82.5566" stroke="white" stroke-width="0.869016"/>
<rect x="1016.34" y="0.434508" width="82.5566" height="82.5566" stroke="white" stroke-width="0.869016"/>
<rect x="1098.9" y="0.434508" width="82.5566" height="82.5566" stroke="white" stroke-width="0.869016"/>
<rect x="1181.45" y="0.434508" width="82.5566" height="82.5566" stroke="white" stroke-width="0.869016"/>
<rect x="1264.01" y="0.434508" width="82.5566" height="82.5566" stroke="white" stroke-width="0.869016"/>
<rect x="-56.8958" y="83.86" width="82.5566" height="82.5566" stroke="white" stroke-width="0.869016"/>
<rect x="25.6608" y="83.86" width="82.5566" height="82.5566" stroke="white" stroke-width="0.869016"/>
<rect x="108.217" y="83.86" width="82.5566" height="82.5566" stroke="white" stroke-width="0.869016"/>
<rect x="190.774" y="83.86" width="82.5566" height="82.5566" stroke="white" stroke-width="0.869016"/>
<rect x="273.331" y="83.86" width="82.5566" height="82.5566" stroke="white" stroke-width="0.869016"/>
<rect x="355.887" y="83.86" width="82.5566" height="82.5566" stroke="white" stroke-width="0.869016"/>
<rect x="438.444" y="83.86" width="82.5566" height="82.5566" stroke="white" stroke-width="0.869016"/>
<rect x="521" y="83.86" width="82.5566" height="82.5566" stroke="white" stroke-width="0.869016"/>
<rect x="603.557" y="83.86" width="82.5566" height="82.5566" stroke="white" stroke-width="0.869016"/>
<rect x="686.113" y="83.86" width="82.5566" height="82.5566" stroke="white" stroke-width="0.869016"/>
<rect x="768.67" y="83.86" width="82.5566" height="82.5566" stroke="white" stroke-width="0.869016"/>
<rect x="851.227" y="83.86" width="82.5566" height="82.5566" stroke="white" stroke-width="0.869016"/>
<rect x="933.783" y="83.86" width="82.5566" height="82.5566" stroke="white" stroke-width="0.869016"/>
<rect x="1016.34" y="83.86" width="82.5566" height="82.5566" stroke="white" stroke-width="0.869016"/>
<rect x="1098.9" y="83.86" width="82.5566" height="82.5566" stroke="white" stroke-width="0.869016"/>
<rect x="1181.45" y="83.86" width="82.5566" height="82.5566" stroke="white" stroke-width="0.869016"/>
<rect x="1264.01" y="83.86" width="82.5566" height="82.5566" stroke="white" stroke-width="0.869016"/>
<rect x="-56.8958" y="167.286" width="82.5566" height="82.5566" stroke="white" stroke-width="0.869016"/>
<rect x="25.6608" y="167.286" width="82.5566" height="82.5566" stroke="white" stroke-width="0.869016"/>
<rect x="108.217" y="167.286" width="82.5566" height="82.5566" stroke="white" stroke-width="0.869016"/>
<rect x="190.774" y="167.286" width="82.5566" height="82.5566" stroke="white" stroke-width="0.869016"/>
<rect x="273.331" y="167.286" width="82.5566" height="82.5566" stroke="white" stroke-width="0.869016"/>
<rect x="355.887" y="167.286" width="82.5566" height="82.5566" stroke="white" stroke-width="0.869016"/>
<rect x="438.444" y="167.286" width="82.5566" height="82.5566" stroke="white" stroke-width="0.869016"/>
<rect x="521" y="167.286" width="82.5566" height="82.5566" stroke="white" stroke-width="0.869016"/>
<rect x="603.557" y="167.286" width="82.5566" height="82.5566" stroke="white" stroke-width="0.869016"/>
<rect x="686.113" y="167.286" width="82.5566" height="82.5566" stroke="white" stroke-width="0.869016"/>
<rect x="768.67" y="167.286" width="82.5566" height="82.5566" stroke="white" stroke-width="0.869016"/>
<rect x="851.227" y="167.286" width="82.5566" height="82.5566" stroke="white" stroke-width="0.869016"/>
<rect x="933.783" y="167.286" width="82.5566" height="82.5566" stroke="white" stroke-width="0.869016"/>
<rect x="1016.34" y="167.286" width="82.5566" height="82.5566" stroke="white" stroke-width="0.869016"/>
<rect x="1098.9" y="167.286" width="82.5566" height="82.5566" stroke="white" stroke-width="0.869016"/>
<rect x="1181.45" y="167.286" width="82.5566" height="82.5566" stroke="white" stroke-width="0.869016"/>
<rect x="1264.01" y="167.286" width="82.5566" height="82.5566" stroke="white" stroke-width="0.869016"/>
<rect x="-56.8958" y="250.711" width="82.5566" height="82.5566" stroke="white" stroke-width="0.869016"/>
<rect x="25.6608" y="250.711" width="82.5566" height="82.5566" stroke="white" stroke-width="0.869016"/>
<rect x="108.217" y="250.711" width="82.5566" height="82.5566" stroke="white" stroke-width="0.869016"/>
<rect x="190.774" y="250.711" width="82.5566" height="82.5566" stroke="white" stroke-width="0.869016"/>
<rect x="273.331" y="250.711" width="82.5566" height="82.5566" stroke="white" stroke-width="0.869016"/>
<rect x="355.887" y="250.711" width="82.5566" height="82.5566" stroke="white" stroke-width="0.869016"/>
<rect x="438.444" y="250.711" width="82.5566" height="82.5566" stroke="white" stroke-width="0.869016"/>
<rect x="521" y="250.711" width="82.5566" height="82.5566" stroke="white" stroke-width="0.869016"/>
<rect x="603.557" y="250.711" width="82.5566" height="82.5566" stroke="white" stroke-width="0.869016"/>
<rect x="686.113" y="250.711" width="82.5566" height="82.5566" stroke="white" stroke-width="0.869016"/>
<rect x="768.67" y="250.711" width="82.5566" height="82.5566" stroke="white" stroke-width="0.869016"/>
<rect x="851.227" y="250.711" width="82.5566" height="82.5566" stroke="white" stroke-width="0.869016"/>
<rect x="933.783" y="250.711" width="82.5566" height="82.5566" stroke="white" stroke-width="0.869016"/>
<rect x="1016.34" y="250.711" width="82.5566" height="82.5566" stroke="white" stroke-width="0.869016"/>
<rect x="1098.9" y="250.711" width="82.5566" height="82.5566" stroke="white" stroke-width="0.869016"/>
<rect x="1181.45" y="250.711" width="82.5566" height="82.5566" stroke="white" stroke-width="0.869016"/>
<rect x="1264.01" y="250.711" width="82.5566" height="82.5566" stroke="white" stroke-width="0.869016"/>
<rect x="-56.8958" y="334.137" width="82.5566" height="82.5566" stroke="white" stroke-width="0.869016"/>
<rect x="25.6608" y="334.137" width="82.5566" height="82.5566" stroke="white" stroke-width="0.869016"/>
<rect x="107.783" y="333.702" width="83.4256" height="83.4256" fill="white" fill-opacity="0.13"/>
<rect x="190.774" y="334.137" width="82.5566" height="82.5566" stroke="white" stroke-width="0.869016"/>
<rect x="273.331" y="334.137" width="82.5566" height="82.5566" stroke="white" stroke-width="0.869016"/>
<rect x="355.887" y="334.137" width="82.5566" height="82.5566" stroke="white" stroke-width="0.869016"/>
<rect x="438.444" y="334.137" width="82.5566" height="82.5566" stroke="white" stroke-width="0.869016"/>
<rect x="521" y="334.137" width="82.5566" height="82.5566" stroke="white" stroke-width="0.869016"/>
<rect x="603.557" y="334.137" width="82.5566" height="82.5566" stroke="white" stroke-width="0.869016"/>
<rect x="685.679" y="333.702" width="83.4256" height="83.4256" fill="white" fill-opacity="0.13"/>
<rect x="768.67" y="334.137" width="82.5566" height="82.5566" stroke="white" stroke-width="0.869016"/>
<rect x="850.792" y="333.702" width="83.4256" height="83.4256" fill="white" fill-opacity="0.13"/>
<rect x="933.783" y="334.137" width="82.5566" height="82.5566" stroke="white" stroke-width="0.869016"/>
<rect x="1016.34" y="334.137" width="82.5566" height="82.5566" stroke="white" stroke-width="0.869016"/>
<rect x="1098.9" y="334.137" width="82.5566" height="82.5566" stroke="white" stroke-width="0.869016"/>
<rect x="1181.45" y="334.137" width="82.5566" height="82.5566" stroke="white" stroke-width="0.869016"/>
<rect x="1264.01" y="334.137" width="82.5566" height="82.5566" stroke="white" stroke-width="0.869016"/>
<rect x="-56.8958" y="417.562" width="82.5566" height="82.5566" stroke="white" stroke-width="0.869016"/>
<rect x="25.2263" y="417.128" width="83.4256" height="83.4256" fill="white" fill-opacity="0.13"/>
<rect x="108.217" y="417.562" width="82.5566" height="82.5566" stroke="white" stroke-width="0.869016"/>
<rect x="190.339" y="417.128" width="83.4256" height="83.4256" fill="white" fill-opacity="0.13"/>
<rect x="273.331" y="417.562" width="82.5566" height="82.5566" stroke="white" stroke-width="0.869016"/>
<rect x="355.887" y="417.562" width="82.5566" height="82.5566" stroke="white" stroke-width="0.869016"/>
<rect x="438.444" y="417.562" width="82.5566" height="82.5566" stroke="white" stroke-width="0.869016"/>
<rect x="521" y="417.562" width="82.5566" height="82.5566" stroke="white" stroke-width="0.869016"/>
<rect x="603.122" y="417.128" width="83.4256" height="83.4256" fill="white" fill-opacity="0.13"/>
<rect x="686.113" y="417.562" width="82.5566" height="82.5566" stroke="white" stroke-width="0.869016"/>
<rect x="768.235" y="417.128" width="83.4256" height="83.4256" fill="white" fill-opacity="0.13"/>
<rect x="851.227" y="417.562" width="82.5566" height="82.5566" stroke="white" stroke-width="0.869016"/>
<rect x="933.783" y="417.562" width="82.5566" height="82.5566" stroke="white" stroke-width="0.869016"/>
<rect x="1016.34" y="417.562" width="82.5566" height="82.5566" stroke="white" stroke-width="0.869016"/>
<rect x="1098.9" y="417.562" width="82.5566" height="82.5566" stroke="white" stroke-width="0.869016"/>
<rect x="1181.45" y="417.562" width="82.5566" height="82.5566" stroke="white" stroke-width="0.869016"/>
<rect x="1264.01" y="417.562" width="82.5566" height="82.5566" stroke="white" stroke-width="0.869016"/>
<rect x="-57.3303" y="500.553" width="83.4256" height="83.4256" fill="white" fill-opacity="0.13"/>
<rect x="25.6608" y="500.988" width="82.5566" height="82.5566" stroke="white" stroke-width="0.869016"/>
<rect x="107.783" y="500.553" width="83.4256" height="83.4256" fill="white" fill-opacity="0.13"/>
<rect x="190.774" y="500.988" width="82.5566" height="82.5566" stroke="white" stroke-width="0.869016"/>
<rect x="273.331" y="500.988" width="82.5566" height="82.5566" stroke="white" stroke-width="0.869016"/>
<rect x="355.887" y="500.988" width="82.5566" height="82.5566" stroke="white" stroke-width="0.869016"/>
<rect x="438.444" y="500.988" width="82.5566" height="82.5566" stroke="white" stroke-width="0.869016"/>
<rect x="521" y="500.988" width="82.5566" height="82.5566" stroke="white" stroke-width="0.869016"/>
<rect x="603.557" y="500.988" width="82.5566" height="82.5566" stroke="white" stroke-width="0.869016"/>
<rect x="685.679" y="500.553" width="83.4256" height="83.4256" fill="white" fill-opacity="0.13"/>
<rect x="768.67" y="500.988" width="82.5566" height="82.5566" stroke="white" stroke-width="0.869016"/>
<rect x="851.227" y="500.988" width="82.5566" height="82.5566" stroke="white" stroke-width="0.869016"/>
<rect x="933.783" y="500.988" width="82.5566" height="82.5566" stroke="white" stroke-width="0.869016"/>
<rect x="1016.34" y="500.988" width="82.5566" height="82.5566" stroke="white" stroke-width="0.869016"/>
<rect x="1098.9" y="500.988" width="82.5566" height="82.5566" stroke="white" stroke-width="0.869016"/>
<rect x="1181.45" y="500.988" width="82.5566" height="82.5566" stroke="white" stroke-width="0.869016"/>
<rect x="1264.01" y="500.988" width="82.5566" height="82.5566" stroke="white" stroke-width="0.869016"/>
<rect x="-56.8958" y="584.414" width="82.5566" height="82.5566" stroke="white" stroke-width="0.869016"/>
<rect x="25.6608" y="584.414" width="82.5566" height="82.5566" stroke="white" stroke-width="0.869016"/>
<rect x="108.217" y="584.414" width="82.5566" height="82.5566" stroke="white" stroke-width="0.869016"/>
<rect x="190.774" y="584.414" width="82.5566" height="82.5566" stroke="white" stroke-width="0.869016"/>
<rect x="273.331" y="584.414" width="82.5566" height="82.5566" stroke="white" stroke-width="0.869016"/>
<rect x="355.887" y="584.414" width="82.5566" height="82.5566" stroke="white" stroke-width="0.869016"/>
<rect x="438.444" y="584.414" width="82.5566" height="82.5566" stroke="white" stroke-width="0.869016"/>
<rect x="521" y="584.414" width="82.5566" height="82.5566" stroke="white" stroke-width="0.869016"/>
<rect x="603.557" y="584.414" width="82.5566" height="82.5566" stroke="white" stroke-width="0.869016"/>
<rect x="686.113" y="584.414" width="82.5566" height="82.5566" stroke="white" stroke-width="0.869016"/>
<rect x="768.67" y="584.414" width="82.5566" height="82.5566" stroke="white" stroke-width="0.869016"/>
<rect x="851.227" y="584.414" width="82.5566" height="82.5566" stroke="white" stroke-width="0.869016"/>
<rect x="933.783" y="584.414" width="82.5566" height="82.5566" stroke="white" stroke-width="0.869016"/>
<rect x="1016.34" y="584.414" width="82.5566" height="82.5566" stroke="white" stroke-width="0.869016"/>
<rect x="1098.9" y="584.414" width="82.5566" height="82.5566" stroke="white" stroke-width="0.869016"/>
<rect x="1181.45" y="584.414" width="82.5566" height="82.5566" stroke="white" stroke-width="0.869016"/>
<rect x="1264.01" y="584.414" width="82.5566" height="82.5566" stroke="white" stroke-width="0.869016"/>
<rect x="-56.8958" y="667.839" width="82.5566" height="82.5566" stroke="white" stroke-width="0.869016"/>
<rect x="25.6608" y="667.839" width="82.5566" height="82.5566" stroke="white" stroke-width="0.869016"/>
<rect x="108.217" y="667.839" width="82.5566" height="82.5566" stroke="white" stroke-width="0.869016"/>
<rect x="190.774" y="667.839" width="82.5566" height="82.5566" stroke="white" stroke-width="0.869016"/>
<rect x="273.331" y="667.839" width="82.5566" height="82.5566" stroke="white" stroke-width="0.869016"/>
<rect x="355.887" y="667.839" width="82.5566" height="82.5566" stroke="white" stroke-width="0.869016"/>
<rect x="438.444" y="667.839" width="82.5566" height="82.5566" stroke="white" stroke-width="0.869016"/>
<rect x="521" y="667.839" width="82.5566" height="82.5566" stroke="white" stroke-width="0.869016"/>
<rect x="603.122" y="667.405" width="83.4256" height="83.4256" fill="white" fill-opacity="0.13"/>
<rect x="686.113" y="667.839" width="82.5566" height="82.5566" stroke="white" stroke-width="0.869016"/>
<rect x="768.67" y="667.839" width="82.5566" height="82.5566" stroke="white" stroke-width="0.869016"/>
<rect x="851.227" y="667.839" width="82.5566" height="82.5566" stroke="white" stroke-width="0.869016"/>
<rect x="933.783" y="667.839" width="82.5566" height="82.5566" stroke="white" stroke-width="0.869016"/>
<rect x="1016.34" y="667.839" width="82.5566" height="82.5566" stroke="white" stroke-width="0.869016"/>
<rect x="1098.9" y="667.839" width="82.5566" height="82.5566" stroke="white" stroke-width="0.869016"/>
<rect x="1181.45" y="667.839" width="82.5566" height="82.5566" stroke="white" stroke-width="0.869016"/>
<rect x="1264.01" y="667.839" width="82.5566" height="82.5566" stroke="white" stroke-width="0.869016"/>
<rect x="-56.8958" y="751.265" width="82.5566" height="82.5566" stroke="white" stroke-width="0.869016"/>
<rect x="25.6608" y="751.265" width="82.5566" height="82.5566" stroke="white" stroke-width="0.869016"/>
<rect x="108.217" y="751.265" width="82.5566" height="82.5566" stroke="white" stroke-width="0.869016"/>
<rect x="190.774" y="751.265" width="82.5566" height="82.5566" stroke="white" stroke-width="0.869016"/>
<rect x="273.331" y="751.265" width="82.5566" height="82.5566" stroke="white" stroke-width="0.869016"/>
<rect x="355.887" y="751.265" width="82.5566" height="82.5566" stroke="white" stroke-width="0.869016"/>
<rect x="438.444" y="751.265" width="82.5566" height="82.5566" stroke="white" stroke-width="0.869016"/>
<rect x="520.566" y="750.83" width="83.4256" height="83.4256" fill="white" fill-opacity="0.13"/>
<rect x="603.557" y="751.265" width="82.5566" height="82.5566" stroke="white" stroke-width="0.869016"/>
<rect x="685.679" y="750.83" width="83.4256" height="83.4256" fill="white" fill-opacity="0.13"/>
<rect x="768.67" y="751.265" width="82.5566" height="82.5566" stroke="white" stroke-width="0.869016"/>
<rect x="850.792" y="750.83" width="83.4256" height="83.4256" fill="white" fill-opacity="0.13"/>
<rect x="933.783" y="751.265" width="82.5566" height="82.5566" stroke="white" stroke-width="0.869016"/>
<rect x="1016.34" y="751.265" width="82.5566" height="82.5566" stroke="white" stroke-width="0.869016"/>
<rect x="1098.9" y="751.265" width="82.5566" height="82.5566" stroke="white" stroke-width="0.869016"/>
<rect x="1181.45" y="751.265" width="82.5566" height="82.5566" stroke="white" stroke-width="0.869016"/>
<rect x="1264.01" y="751.265" width="82.5566" height="82.5566" stroke="white" stroke-width="0.869016"/>
<rect x="-56.8958" y="834.69" width="82.5566" height="82.5566" stroke="white" stroke-width="0.869016"/>
<rect x="25.6608" y="834.69" width="82.5566" height="82.5566" stroke="white" stroke-width="0.869016"/>
<rect x="108.217" y="834.69" width="82.5566" height="82.5566" stroke="white" stroke-width="0.869016"/>
<rect x="190.774" y="834.69" width="82.5566" height="82.5566" stroke="white" stroke-width="0.869016"/>
<rect x="273.331" y="834.69" width="82.5566" height="82.5566" stroke="white" stroke-width="0.869016"/>
<rect x="355.887" y="834.69" width="82.5566" height="82.5566" stroke="white" stroke-width="0.869016"/>
<rect x="438.009" y="834.256" width="83.4256" height="83.4256" fill="white" fill-opacity="0.13"/>
<rect x="521" y="834.69" width="82.5566" height="82.5566" stroke="white" stroke-width="0.869016"/>
<rect x="603.122" y="834.256" width="83.4256" height="83.4256" fill="white" fill-opacity="0.13"/>
<rect x="686.113" y="834.69" width="82.5566" height="82.5566" stroke="white" stroke-width="0.869016"/>
<rect x="768.235" y="834.256" width="83.4256" height="83.4256" fill="white" fill-opacity="0.13"/>
<rect x="851.227" y="834.69" width="82.5566" height="82.5566" stroke="white" stroke-width="0.869016"/>
<rect x="933.783" y="834.69" width="82.5566" height="82.5566" stroke="white" stroke-width="0.869016"/>
<rect x="1016.34" y="834.69" width="82.5566" height="82.5566" stroke="white" stroke-width="0.869016"/>
<rect x="1098.9" y="834.69" width="82.5566" height="82.5566" stroke="white" stroke-width="0.869016"/>
<rect x="1181.45" y="834.69" width="82.5566" height="82.5566" stroke="white" stroke-width="0.869016"/>
<rect x="1264.01" y="834.69" width="82.5566" height="82.5566" stroke="white" stroke-width="0.869016"/>
<rect x="-56.8958" y="918.116" width="82.5566" height="82.5566" stroke="white" stroke-width="0.869016"/>
<rect x="25.6608" y="918.116" width="82.5566" height="82.5566" stroke="white" stroke-width="0.869016"/>
<rect x="108.217" y="918.116" width="82.5566" height="82.5566" stroke="white" stroke-width="0.869016"/>
<rect x="190.774" y="918.116" width="82.5566" height="82.5566" stroke="white" stroke-width="0.869016"/>
<rect x="273.331" y="918.116" width="82.5566" height="82.5566" stroke="white" stroke-width="0.869016"/>
<rect x="355.887" y="918.116" width="82.5566" height="82.5566" stroke="white" stroke-width="0.869016"/>
<rect x="438.444" y="918.116" width="82.5566" height="82.5566" stroke="white" stroke-width="0.869016"/>
<rect x="520.566" y="917.681" width="83.4256" height="83.4256" fill="white" fill-opacity="0.13"/>
<rect x="603.557" y="918.116" width="82.5566" height="82.5566" stroke="white" stroke-width="0.869016"/>
<rect x="685.679" y="917.681" width="83.4256" height="83.4256" fill="white" fill-opacity="0.13"/>
<rect x="768.67" y="918.116" width="82.5566" height="82.5566" stroke="white" stroke-width="0.869016"/>
<rect x="851.227" y="918.116" width="82.5566" height="82.5566" stroke="white" stroke-width="0.869016"/>
<rect x="933.783" y="918.116" width="82.5566" height="82.5566" stroke="white" stroke-width="0.869016"/>
<rect x="1016.34" y="918.116" width="82.5566" height="82.5566" stroke="white" stroke-width="0.869016"/>
<rect x="1098.9" y="918.116" width="82.5566" height="82.5566" stroke="white" stroke-width="0.869016"/>
<rect x="1181.45" y="918.116" width="82.5566" height="82.5566" stroke="white" stroke-width="0.869016"/>
<rect x="1264.01" y="918.116" width="82.5566" height="82.5566" stroke="white" stroke-width="0.869016"/>
<rect x="-56.8958" y="1001.54" width="82.5566" height="82.5566" stroke="white" stroke-width="0.869016"/>
<rect x="25.6608" y="1001.54" width="82.5566" height="82.5566" stroke="white" stroke-width="0.869016"/>
<rect x="108.217" y="1001.54" width="82.5566" height="82.5566" stroke="white" stroke-width="0.869016"/>
<rect x="190.774" y="1001.54" width="82.5566" height="82.5566" stroke="white" stroke-width="0.869016"/>
<rect x="273.331" y="1001.54" width="82.5566" height="82.5566" stroke="white" stroke-width="0.869016"/>
<rect x="355.887" y="1001.54" width="82.5566" height="82.5566" stroke="white" stroke-width="0.869016"/>
<rect x="438.444" y="1001.54" width="82.5566" height="82.5566" stroke="white" stroke-width="0.869016"/>
<rect x="521" y="1001.54" width="82.5566" height="82.5566" stroke="white" stroke-width="0.869016"/>
<rect x="603.557" y="1001.54" width="82.5566" height="82.5566" stroke="white" stroke-width="0.869016"/>
<rect x="686.113" y="1001.54" width="82.5566" height="82.5566" stroke="white" stroke-width="0.869016"/>
<rect x="768.67" y="1001.54" width="82.5566" height="82.5566" stroke="white" stroke-width="0.869016"/>
<rect x="851.227" y="1001.54" width="82.5566" height="82.5566" stroke="white" stroke-width="0.869016"/>
<rect x="933.783" y="1001.54" width="82.5566" height="82.5566" stroke="white" stroke-width="0.869016"/>
<rect x="1016.34" y="1001.54" width="82.5566" height="82.5566" stroke="white" stroke-width="0.869016"/>
<rect x="1098.9" y="1001.54" width="82.5566" height="82.5566" stroke="white" stroke-width="0.869016"/>
<rect x="1181.45" y="1001.54" width="82.5566" height="82.5566" stroke="white" stroke-width="0.869016"/>
<rect x="1264.01" y="1001.54" width="82.5566" height="82.5566" stroke="white" stroke-width="0.869016"/>
<rect x="-56.8958" y="1084.97" width="82.5566" height="82.5566" stroke="white" stroke-width="0.869016"/>
<rect x="25.6608" y="1084.97" width="82.5566" height="82.5566" stroke="white" stroke-width="0.869016"/>
<rect x="108.217" y="1084.97" width="82.5566" height="82.5566" stroke="white" stroke-width="0.869016"/>
<rect x="190.774" y="1084.97" width="82.5566" height="82.5566" stroke="white" stroke-width="0.869016"/>
<rect x="273.331" y="1084.97" width="82.5566" height="82.5566" stroke="white" stroke-width="0.869016"/>
<rect x="355.887" y="1084.97" width="82.5566" height="82.5566" stroke="white" stroke-width="0.869016"/>
<rect x="438.444" y="1084.97" width="82.5566" height="82.5566" stroke="white" stroke-width="0.869016"/>
<rect x="521" y="1084.97" width="82.5566" height="82.5566" stroke="white" stroke-width="0.869016"/>
<rect x="603.557" y="1084.97" width="82.5566" height="82.5566" stroke="white" stroke-width="0.869016"/>
<rect x="686.113" y="1084.97" width="82.5566" height="82.5566" stroke="white" stroke-width="0.869016"/>
<rect x="768.67" y="1084.97" width="82.5566" height="82.5566" stroke="white" stroke-width="0.869016"/>
<rect x="851.227" y="1084.97" width="82.5566" height="82.5566" stroke="white" stroke-width="0.869016"/>
<rect x="933.783" y="1084.97" width="82.5566" height="82.5566" stroke="white" stroke-width="0.869016"/>
<rect x="1016.34" y="1084.97" width="82.5566" height="82.5566" stroke="white" stroke-width="0.869016"/>
<rect x="1098.9" y="1084.97" width="82.5566" height="82.5566" stroke="white" stroke-width="0.869016"/>
<rect x="1181.45" y="1084.97" width="82.5566" height="82.5566" stroke="white" stroke-width="0.869016"/>
<rect x="1264.01" y="1084.97" width="82.5566" height="82.5566" stroke="white" stroke-width="0.869016"/>
</g>
</mask>
<g mask="url(#mask0_738_8288)">
<g filter="url(#filter0_f_738_8288)">
<ellipse cx="105.098" cy="14.9118" rx="189.869" ry="181.671" transform="rotate(34.13 105.098 14.9118)" fill="#20BF0E"/>
</g>
</g>
<defs>
<filter id="filter0_f_738_8288" x="-124.436" y="-211.58" width="459.069" height="452.983" filterUnits="userSpaceOnUse" color-interpolation-filters="sRGB">
<feFlood flood-opacity="0" result="BackgroundImageFix"/>
<feBlend mode="normal" in="SourceGraphic" in2="BackgroundImageFix" result="shape"/>
<feGaussianBlur stdDeviation="21.0926" result="effect1_foregroundBlur_738_8288"/>
</filter>
</defs>
</svg>
