<svg width="121" height="120" viewBox="0 0 121 120" fill="none" xmlns="http://www.w3.org/2000/svg">
<path opacity="0.4" d="M30.3429 6.25H68.1571C71.5239 6.24996 74.2776 6.24993 76.5154 6.43276C78.8317 6.62201 80.9236 7.02569 82.8773 8.02115C85.935 9.57909 88.4209 12.065 89.9789 15.1227C90.9743 17.0764 91.378 19.1684 91.5672 21.4847C91.7501 23.7225 91.75 26.476 91.75 29.8428V102.5C91.75 108.674 96.7229 113.686 102.882 113.749H38.3365C33.5745 113.749 29.7719 113.749 26.7007 113.499C23.5506 113.241 20.8412 112.701 18.3527 111.433C14.3543 109.396 11.1034 106.145 9.06612 102.147C7.79817 99.6582 7.25825 96.9488 7.00088 93.7987C6.74995 90.7274 6.74997 86.9247 6.75 82.1625V29.8429C6.74996 26.476 6.74993 23.7225 6.93276 21.4847C7.12201 19.1684 7.52569 17.0764 8.52115 15.1227C10.0791 12.065 12.565 9.57909 15.6227 8.02115C17.5764 7.02569 19.6684 6.62201 21.9847 6.43276C24.2225 6.24993 26.9761 6.24996 30.3429 6.25Z" fill="#00B559"/>
<path d="M25.5 40C25.5 37.2386 27.7386 35 30.5 35C33.2614 35 35.5005 37.2386 35.5005 40C35.5005 42.7614 33.2614 45 30.5 45C27.7386 45 25.5 42.7614 25.5 40Z" fill="#00B559"/>
<path d="M45.5 36.25C43.4289 36.25 41.75 37.9289 41.75 40C41.75 42.0711 43.4289 43.75 45.5 43.75H70.5C72.5711 43.75 74.25 42.0711 74.25 40C74.25 37.9289 72.5711 36.25 70.5 36.25H45.5Z" fill="#00B559"/>
<path d="M25.5 60C25.5 57.2386 27.7386 55 30.5 55C33.2614 55 35.5005 57.2386 35.5005 60C35.5005 62.7614 33.2619 65 30.5005 65C27.7391 65 25.5 62.7614 25.5 60Z" fill="#00B559"/>
<path d="M41.75 60C41.75 57.9289 43.4289 56.25 45.5 56.25H70.5C72.5711 56.25 74.25 57.9289 74.25 60C74.25 62.0711 72.5711 63.75 70.5 63.75H45.5C43.4289 63.75 41.75 62.0711 41.75 60Z" fill="#00B559"/>
<path d="M25.5 80C25.5 77.2386 27.7386 75 30.5 75C33.2614 75 35.5005 77.2386 35.5005 80C35.5005 82.7614 33.2619 85 30.5005 85C27.7391 85 25.5 82.7614 25.5 80Z" fill="#00B559"/>
<path d="M41.75 80C41.75 77.9289 43.4289 76.25 45.5 76.25H70.5C72.5711 76.25 74.25 77.9289 74.25 80C74.25 82.0711 72.5711 83.75 70.5 83.75H45.5C43.4289 83.75 41.75 82.0711 41.75 80Z" fill="#00B559"/>
<path d="M110.5 61.25C112.571 61.25 114.25 62.9289 114.25 65V102.5C114.25 108.713 109.213 113.75 103 113.75C96.7868 113.75 91.75 108.713 91.75 102.5V61.25H110.5Z" fill="#00B559"/>
</svg>
